<svg width="100" height="82" viewBox="0 0 100 82" fill="none" xmlns="http://www.w3.org/2000/svg">
<g clip-path="url(#clip0_5197_5283)">
<path d="M50.9837 4.54485e-06C48.3091 4.54485e-06 46.9597 1.21783 45.6346 3.1907C44.3095 5.16357 35.611 19.2091 34.2859 21.117C34.2859 21.117 32.3592 20.0048 30.1805 19.5988C27.0588 19.0224 24.2217 19.3065 24.2217 19.3065C24.2217 19.3065 25.3435 21.7665 27.8799 24.9166C30.0261 27.5796 33.3591 30.2182 36.8548 32.0612C41.5942 34.5618 47.2767 36.3479 54.4631 36.3479C60.2106 36.3479 64.7631 34.3182 66.2589 33.4739C69.4456 31.6796 69.8927 30.4861 69.8927 30.4861C69.8927 30.4861 63.6981 33.8636 57.9669 34.0584C51.6747 34.2776 48.9757 33.1085 46.0654 31.4117C43.4477 29.8854 41.4479 27.1087 39.505 24.9735C38.3669 23.7313 36.4564 22.3755 36.4564 22.3755C36.4564 22.3755 41.2528 20.6867 43.0331 19.6638C44.911 18.5921 46.6426 16.9846 47.6913 15.4826C48.8375 13.8426 49.3416 11.8129 51.1869 11.8129C53.0323 11.8129 53.6176 13.5422 54.9427 15.1254C56.4873 16.9683 58.292 18.04 60.5276 18.9737C62.8283 19.9317 66.6328 20.7436 66.6328 20.7436C66.6328 20.7436 63.9745 21.523 61.0073 22.9925C56.7962 25.079 55.715 26.6784 50.3984 26.6865C48.3254 26.6865 46.3743 26.1507 44.9842 25.5499C43.5941 24.9491 41.8219 23.9992 41.8219 23.9992C41.8219 23.9992 44.1794 26.7353 45.4394 27.6933C47.7319 29.4388 50.5366 31.1113 56.276 31.0869C61.0073 31.0707 66.0556 29.2196 68.3807 27.7095C73.1526 24.6081 75.1199 20.8491 75.7703 19.0549C75.7703 19.0549 73.2827 19.201 71.6731 19.4933C69.9659 19.8099 67.9254 20.3539 67.9254 20.3539C67.9254 20.3539 57.4628 4.92812 56.2353 3.1501C54.9183 1.2503 53.4063 -0.0324707 50.9837 -0.0324707V4.54485e-06Z" fill="#040000"/>
<path d="M17.9538 55.9305C17.9538 54.5747 17.6205 53.3 16.962 52.1228C16.3035 50.9456 15.4012 50.0119 14.263 49.3218C13.1168 48.6317 11.8486 48.2826 10.4666 48.2826C9.08461 48.2826 7.78391 48.6155 6.6214 49.2812C5.46702 49.9469 4.5484 50.8644 3.88179 52.0335C3.21518 53.2026 2.87374 54.5097 2.87374 55.9549C2.87374 57.4 3.19892 58.6422 3.86553 59.7951C4.52401 60.9479 5.43451 61.8572 6.60514 62.5149C7.77578 63.1725 9.06835 63.4972 10.4991 63.4972C11.9299 63.4972 13.1087 63.1562 14.2387 62.4743C15.3768 61.7923 16.2791 60.8749 16.9458 59.722C17.6205 58.5691 17.9538 57.2945 17.9538 55.9143M17.7506 61.9465C16.9783 63.0994 15.9621 64.0087 14.6858 64.6663C13.4176 65.324 12.0193 65.6487 10.4991 65.6487C8.66188 65.6487 6.97909 65.2184 5.44263 64.3578C3.9143 63.4972 2.70302 62.32 1.81692 60.8424C0.93081 59.3566 0.491821 57.7004 0.491821 55.8656C0.491821 54.0307 0.947068 52.4069 1.85756 50.9212C2.75993 49.4355 3.97934 48.2663 5.5158 47.422C7.04413 46.5695 8.71066 46.1473 10.4991 46.1473C12.0437 46.1473 13.4501 46.4721 14.7183 47.1297C15.9865 47.7873 17.0027 48.7048 17.7506 49.882H17.8237V46.6182H20.2057V65.2022H17.8237V61.9384H17.7506V61.9465Z" fill="#040000"/>
<path d="M32.7168 48.2907C30.9446 48.2907 29.5382 48.8915 28.4814 50.0931C27.4245 51.2947 26.9043 52.821 26.9043 54.6802V65.2103H24.5223V46.6263H26.9043V49.0052H26.9693C27.5627 48.104 28.3594 47.3976 29.3675 46.9024C30.3755 46.4071 31.4811 46.1555 32.6843 46.1555C34.3589 46.1555 35.8222 46.5208 37.0579 47.2434C38.2936 47.966 39.2366 48.9889 39.8951 50.3042C40.5535 51.6194 40.8787 53.1376 40.8787 54.8588V65.2184H38.4968V54.8588C38.4968 53.503 38.2448 52.3258 37.7489 51.3434C37.2449 50.361 36.562 49.606 35.6759 49.0863C34.7898 48.5667 33.8061 48.3069 32.7168 48.3069" fill="#040000"/>
<path d="M61.8364 55.9305C61.8364 54.5747 61.5031 53.3 60.8528 52.1228C60.1943 50.9456 59.2919 50.0119 58.1457 49.3218C56.9994 48.6317 55.7394 48.2826 54.3574 48.2826C52.9754 48.2826 51.634 48.6155 50.4796 49.2812C49.3253 49.9469 48.4148 50.8644 47.7563 52.0335C47.0978 53.2026 46.7645 54.5097 46.7645 55.9549C46.7645 57.4 47.0897 58.6341 47.7563 59.7788C48.4148 60.9236 49.3171 61.8248 50.4796 62.4986C51.634 63.1644 52.9428 63.5054 54.3899 63.5054C55.7475 63.5054 56.9994 63.1644 58.1294 62.4824C59.2594 61.8004 60.1618 60.883 60.8284 59.7301C61.5031 58.5772 61.8364 57.3026 61.8364 55.9224M61.6332 61.9465C60.8365 63.1238 59.8041 64.0331 58.5196 64.6826C57.2352 65.324 55.8613 65.6487 54.3899 65.6487C52.5526 65.6487 50.8698 65.2184 49.3334 64.3578C47.8051 63.4972 46.5938 62.32 45.7077 60.8424C44.8216 59.3566 44.3826 57.7004 44.3826 55.8656C44.3826 54.0307 44.8378 52.4069 45.7483 50.9212C46.6507 49.4355 47.8701 48.2663 49.4065 47.422C50.9349 46.5695 52.6014 46.1473 54.3899 46.1473C55.8369 46.1473 57.2108 46.4721 58.5034 47.1135C59.7959 47.763 60.8365 48.656 61.6332 49.817H61.7064V40.0663H64.0883V65.2103H61.7064V61.9465H61.6332Z" fill="#040000"/>
<path d="M85.2491 55.9305C85.2491 54.5747 84.9158 53.3 84.2573 52.1228C83.5988 50.9456 82.6965 50.0119 81.5502 49.3218C80.404 48.6317 79.1439 48.2826 77.7538 48.2826C76.3636 48.2826 75.0711 48.6155 73.9086 49.2812C72.7542 49.9469 71.8356 50.8644 71.1689 52.0335C70.5023 53.2026 70.1609 54.5097 70.1609 55.9549C70.1609 57.4 70.4861 58.6422 71.1527 59.7951C71.8112 60.9479 72.7217 61.8572 73.8923 62.5149C75.0629 63.1725 76.3555 63.4972 77.7863 63.4972C79.2171 63.4972 80.3958 63.1562 81.5258 62.4743C82.6639 61.7923 83.5663 60.8749 84.2329 59.722C84.9077 58.5691 85.241 57.2945 85.241 55.9143M85.0377 61.9465C84.2654 63.0994 83.2493 64.0087 81.9729 64.6663C80.7048 65.324 79.3065 65.6487 77.7863 65.6487C75.949 65.6487 74.2663 65.2184 72.7379 64.3578C71.2096 63.4972 69.9983 62.32 69.1122 60.8424C68.2261 59.3566 67.7871 57.7004 67.7871 55.8656C67.7871 54.0307 68.2424 52.4069 69.1529 50.9212C70.0552 49.4355 71.2746 48.2663 72.8111 47.422C74.3394 46.5695 76.006 46.1473 77.7944 46.1473C79.339 46.1473 80.7454 46.4721 82.0136 47.1297C83.2818 47.7873 84.298 48.7048 85.0459 49.882H85.119V46.6182H87.5009V65.2022H85.119V61.9384H85.0459L85.0377 61.9465Z" fill="#040000"/>
<path d="M94.1914 46.6263V49.3056H94.2565C94.6873 48.3069 95.3052 47.56 96.11 47.0485C96.9148 46.537 98.0448 46.2366 99.4918 46.1473V48.6642H99.4593C97.7765 48.8265 96.4758 49.403 95.5653 50.4178C94.6467 51.4246 94.1833 52.6992 94.1833 54.2418V65.2184H91.8014V46.6345H94.1833L94.1914 46.6263Z" fill="#040000"/>
<path d="M13.6697 77.8269L14.3119 77.4535C14.5802 78.3465 15.2793 78.923 16.4499 78.923C17.6206 78.923 18.2059 78.379 18.2059 77.5834C18.2059 76.7228 17.4742 76.4467 16.3768 76.0895C15.1655 75.6836 13.9949 75.3669 13.9949 73.9949C13.9949 72.6228 15.0517 71.957 16.2792 71.957C17.5068 71.957 18.3522 72.6796 18.7343 73.5646L18.1083 73.9137C17.8319 73.2479 17.2547 72.6796 16.2792 72.6796C15.385 72.6796 14.7346 73.1505 14.7346 73.9624C14.7346 74.7743 15.3687 75.0259 16.3849 75.3507C17.7344 75.7972 18.9457 76.1788 18.9457 77.559C18.9457 78.8337 17.9214 79.6374 16.4337 79.6374C15.0598 79.6374 14.0518 78.9473 13.6697 77.8188V77.8269Z" fill="#040000"/>
<path d="M20.5472 79.5157H21.2463V74.8879H22.36V74.206H21.2463V72.3143H20.5472V74.206H19.4253V74.8879H20.5472V79.5157Z" fill="#040000"/>
<path d="M32.9933 79.5157H33.6925V74.8879H34.8143V74.206H33.6925V72.3143H32.9933V74.206H31.8715V74.8879H32.9933V79.5157Z" fill="#040000"/>
<path d="M25.7175 74.1166V74.7986C24.8639 74.7986 24.0347 75.2452 24.0347 76.5604V79.5156H23.3356V74.2059H24.0347V75.0909C24.4087 74.344 25.0346 74.1248 25.7175 74.1248V74.1166Z" fill="#040000"/>
<path d="M31.4487 76.8852C31.4487 76.9907 31.4406 77.1044 31.4243 77.218H26.7581C26.9044 78.2978 27.7499 78.9717 28.8717 78.9717C29.709 78.9717 30.2944 78.582 30.587 78.0705L31.2049 78.4277C30.7577 79.1503 29.9367 79.6456 28.8636 79.6456C27.1808 79.6456 26.0345 78.4683 26.0345 76.8608C26.0345 75.2533 27.1645 74.076 28.8067 74.076C30.4488 74.076 31.4406 75.4238 31.4406 76.877L31.4487 76.8852ZM26.7581 76.5279H30.7252C30.5789 75.3588 29.7253 74.7499 28.8148 74.7499C27.7011 74.7499 26.9044 75.4806 26.7662 76.5279H26.7581Z" fill="#040000"/>
<path d="M35.3833 76.8608C35.3833 75.2858 36.5783 74.076 38.1798 74.076C39.2366 74.076 40.1228 74.6281 40.513 75.4644L39.9358 75.7972C39.6512 75.1721 38.9765 74.758 38.1798 74.758C37.0011 74.758 36.0824 75.6836 36.0824 76.8608C36.0824 78.038 36.9929 78.9636 38.1798 78.9636C38.9846 78.9636 39.635 78.5414 39.9764 77.9244L40.5617 78.2654C40.1227 79.1016 39.2204 79.6456 38.1798 79.6456C36.5702 79.6456 35.3833 78.4359 35.3833 76.8608Z" fill="#040000"/>
<path d="M46.1467 76.2519V79.5156H45.4476V76.2519C45.4476 75.3101 44.9273 74.758 44.0006 74.758C43.0738 74.758 42.2771 75.3101 42.2771 76.7309V79.5156H41.578V72.0788H42.2771V75.034C42.6917 74.3683 43.3096 74.076 44.0656 74.076C45.3663 74.076 46.1467 74.9285 46.1467 76.2519Z" fill="#040000"/>
<path d="M50.8861 82H51.6828L54.7476 74.2059H53.9997L52.2762 78.655L50.2764 74.2059H49.5366L51.9185 79.5481L50.8861 82Z" fill="#040000"/>
<path d="M55.0647 76.8608C55.0647 75.2858 56.3085 74.076 57.8612 74.076C59.4139 74.076 60.6577 75.2858 60.6577 76.8608C60.6577 78.4359 59.4139 79.6456 57.8612 79.6456C56.3085 79.6456 55.0647 78.4359 55.0647 76.8608ZM59.9586 76.8608C59.9586 75.6836 59.0481 74.758 57.8612 74.758C56.6743 74.758 55.7638 75.6836 55.7638 76.8608C55.7638 78.038 56.6743 78.9636 57.8612 78.9636C59.0481 78.9636 59.9586 78.038 59.9586 76.8608Z" fill="#040000"/>
<path d="M66.2752 74.2059V79.5156H65.576V78.6875C65.1614 79.3533 64.5436 79.6455 63.7875 79.6455C62.4868 79.6455 61.7064 78.7931 61.7064 77.4697V74.2059H62.4056V77.4697C62.4056 78.4115 62.9258 78.9636 63.8526 78.9636C64.7793 78.9636 65.576 78.4115 65.576 76.9907V74.2059H66.2752Z" fill="#040000"/>
<path d="M70.1447 74.1166V74.7986C69.2911 74.7986 68.4619 75.2452 68.4619 76.5604V79.5156H67.7628V74.2059H68.4619V75.0909C68.8359 74.344 69.4619 74.1248 70.1447 74.1248V74.1166Z" fill="#040000"/>
<path d="M73.7623 71.9408H74.4615V79.5156H73.7623V71.9408Z" fill="#040000"/>
<path d="M75.7947 72.5659C75.7947 72.2899 76.0142 72.0544 76.3068 72.0544C76.5995 72.0544 76.819 72.2899 76.819 72.5659C76.819 72.842 76.5995 73.0774 76.3068 73.0774C76.0142 73.0774 75.7947 72.842 75.7947 72.5659ZM75.9573 74.2059H76.6564V79.5156H75.9573V74.2059Z" fill="#040000"/>
<path d="M79.2741 73.9949V74.2059H80.8024V74.8879H79.2741V79.5156H78.575V74.8879H77.6726V74.2059H78.575V73.9949C78.575 72.6147 79.3717 71.8515 80.8106 71.957V72.639C79.7781 72.5578 79.2822 72.98 79.2822 73.9949H79.2741Z" fill="#040000"/>
<path d="M86.3303 76.8852C86.3303 76.9907 86.3222 77.1044 86.3059 77.218H81.6397C81.786 78.2978 82.6314 78.9717 83.7533 78.9717C84.5906 78.9717 85.1759 78.582 85.4686 78.0705L86.0864 78.4277C85.6393 79.1503 84.8183 79.6456 83.7452 79.6456C82.0624 79.6456 80.9161 78.4683 80.9161 76.8608C80.9161 75.2533 82.0461 74.076 83.6883 74.076C85.3304 74.076 86.3222 75.4238 86.3222 76.877L86.3303 76.8852ZM81.6397 76.5279H85.6068C85.4605 75.3588 84.6069 74.7499 83.6964 74.7499C82.5827 74.7499 81.786 75.4806 81.6478 76.5279H81.6397Z" fill="#040000"/>
</g>
<defs>
<clipPath id="clip0_5197_5283">
<rect width="99" height="82" fill="white" transform="translate(0.5)"/>
</clipPath>
</defs>
</svg>
