<svg viewBox="0 0 120 31" fill="none" xmlns="http://www.w3.org/2000/svg" class=""><g clip-path="url(#clip0_19_2471)"><path d="M120 3.813l-2.1-2.14H99.208v.95l-1.029-1.005-18.69.003v.959l-.98-.962h-4.982v.413l-.437-.413h-4.16V0h-4.984v1.618h-4.124v1.954L58.027 1.49h-4.982v.871l-.437-.637H48.45V.106h-4.987v1.616l-4.127.002v1.377l-.977-1.46h-4.983v4.09l-.436-.664-3.459-3.42h-6.351l-3.461 3.42v1.477l-.978-1.477-3.458-3.42H3.464L0 5.066v7.136l4.14 4.105H0v4.94l1.866 1.582h4.99v6.25l2.913 1.918h3.89V22.83h6.727v-4.302l.013.015 4.243 4.287h7.05l1.685-1.611v7.863L35.307 31h4.749v-1.92l1.95 1.92h18.791v-2.472l-1.996-2.912h2.585L66.796 31h10.568l3.25-3.393V23.28l-3.555-3.443h3.556v-1.203l1.2 1.203h3.497l1.273-4.4.746 2.628 1.27 1.772h2.529v9.22l2.143 1.94h7.009v-1.983l2.003 1.983H120V27.26l-2.006-1.994H120v-7.533l-1.648-1.573H120v-2.774l-1.889-1.687H120V8.213l-1.389-1.279H120v-3.12z" fill="#000"></path><path d="M37.644 10.531V2.356h-3.55v26.011h3.55V14.053h1.285V10.53h-1.285zM29.18 2.356h-5.752l-3.042 3.013v12.157l3.042 3.01h5.752l3.042-3.01V5.366L29.18 2.354v.002zm-.506 14.664h-4.74V5.867h4.74V17.02zM43.6 24.85v-3.193h-3.544v6.71H57.31v-3.516H43.6zM47.727 2.434V.815h-3.545v1.619h-4.126v2.059H51.892v-2.06h-4.165zM57.31 10.375V2.197H53.77v18.186h3.542v-6.489h1.376v-3.519h-1.376zM43.088 5.759l-3.032 3.015v8.75l3.04 3.01h5.756l3.037-3.01v-8.75L48.852 5.76h-5.764zm5.256 11.259h-4.743v-7.74h4.743v7.74zM91.854 2.328v5.465h-1.565v3.513h1.565v17.036h2.211V2.328h-2.211zM97.46 2.328h-2.214v26.014h2.215V2.328z" fill="#fff"></path><path d="M86.996 4.39h3.492V2.328H80.206V4.39h3.25l-3.68 12.96h2.802l2.648-9.326 2.649 9.326h2.803L86.996 4.39zM74.246 2.333v3.318h-.836v3.521h.836v2.253h-.836v3.516h.836v2.406h3.547V2.334h-3.547zM68.212 2.328V.718h-3.545v1.61h-4.129V4.39h11.839V2.328h-4.165zM74.756 18.74h-9.614l-3.04 3.012v3.575l3.045 3.012h9.607l3.04-3.012v-3.575l-3.038-3.012zm-.51 6.083H65.65v-2.57h8.596v2.57zM69.335 5.656h-5.757l-3.04 3.015v5.747l3.04 3.012h5.757l3.042-3.012V8.67l-3.042-3.015zm-.51 8.26h-4.74V9.173h4.74v4.745zM117.176 11.611H99.924v2.061h17.252v-2.06zM103.469 4.45h13.712V2.39H99.924v6.82h17.257V6.44h-13.712V4.45zM113.636 20.718H99.924v7.538h17.257v-2.773h-13.712v-2.701h13.712V15.96H99.924v2.771h13.712v1.986zM.719 17.023v3.511h6.853v7.833h3.545v-7.833h6.857v-3.511H.719zM14.934 2.356H3.758l-3.04 3.01v6.542l3.04 3.016h11.176l3.04-3.013V5.366l-3.04-3.012v.002zm-.505 9.049H4.266V5.867H14.43v5.538z" fill="#fff"></path></g><defs><clipPath id="clip0_19_2471"><path fill="#fff" d="M0 0h120v31H0z"></path></clipPath></defs></svg>