<svg width="93" height="30" viewBox="0 0 93 30" fill="none" xmlns="http://www.w3.org/2000/svg">
<path d="M29.888 11.072C28.512 11.488 27.968 11.872 27.104 13.088C26.784 12.928 26.72 12.896 26.24 12.672C20.192 9.888 17.12 6.016 14.912 2.24C14.752 2.208 14.72 2.208 14.56 2.208C10.176 8.704 6.688 12.128 0.192 15.488L0 15.232C4.224 12.064 9.152 7.84 12.704 1.28C13.024 0.704 13.056 0.48 13.088 0.128L15.68 1.28C15.808 1.344 15.936 1.472 15.936 1.696C15.936 1.952 15.808 2.112 15.584 2.208C19.616 7.584 25.376 10.528 29.888 10.784V11.072ZM22.848 21.504C22.848 21.664 22.752 21.792 22.592 21.888C22.432 21.984 22.336 22.016 21.504 22.144C20.352 23.84 19.072 25.44 17.472 26.688L17.152 26.56C17.984 25.28 18.816 23.36 19.712 21.28C19.936 20.736 20 20.448 20.096 19.616L22.528 21.088C22.752 21.216 22.848 21.312 22.848 21.504ZM28.32 27.392C28.32 27.712 28.064 27.744 27.84 27.744H5.728C4.608 27.744 2.816 27.872 1.6 28.096L0.864 26.72C3.264 26.912 5.568 26.976 6.176 26.976H13.472V18.144H7.808C6.656 18.144 4.896 18.272 3.68 18.528L2.944 17.12C5.312 17.344 7.648 17.376 8.256 17.376H13.472V12.736H12.32C11.2 12.736 9.408 12.864 8.192 13.088L7.456 11.712C9.856 11.904 12.16 11.968 12.768 11.968H17.248L18.272 10.848C18.592 10.496 18.624 10.464 18.784 10.464C18.912 10.464 19.04 10.528 19.392 10.784L20.928 11.904C21.088 12 21.248 12.16 21.248 12.384C21.248 12.672 20.992 12.736 20.768 12.736H15.264V17.376H21.984L23.104 15.968C23.2 15.84 23.424 15.584 23.584 15.584C23.808 15.584 24 15.744 24.192 15.904L25.792 17.312C25.984 17.504 26.112 17.6 26.112 17.824C26.112 18.112 25.856 18.144 25.632 18.144H15.264V26.976H23.904L25.184 25.408C25.248 25.344 25.504 25.024 25.696 25.024C25.856 25.024 26.08 25.184 26.24 25.344L28.032 26.912C28.16 27.04 28.32 27.2 28.32 27.392ZM10.24 24.256C10.24 24.48 10.24 25.568 9.216 25.568C8.288 25.568 8.096 24.736 7.84 23.744C7.424 21.984 7.392 21.792 6.464 20.064L6.656 19.872C6.912 20.064 8.128 20.96 8.384 21.12C9.184 21.728 10.24 22.784 10.24 24.256Z" fill="#FBF0DA"/>
<path d="M55.712 2.496C55.712 2.752 55.392 3.008 54.656 3.424C54.624 4.832 54.592 6.112 54.624 7.136C54.656 7.776 54.816 11.456 54.816 11.616C54.816 11.904 54.816 12.288 54.336 12.608C54.08 12.8 53.696 12.864 53.504 12.864C52.864 12.864 52.896 12.448 52.96 11.776H38.656C38.688 12.704 37.696 12.928 37.408 12.928C36.736 12.928 36.736 12.416 36.736 12.192C36.736 11.456 36.832 10.24 36.864 9.504C36.928 7.648 36.928 6.56 36.928 5.76C36.928 3.136 36.832 2.464 36.544 0.544001L39.136 1.888H52.672L53.216 1.28C53.344 1.152 53.472 0.959999 53.6 0.959999C53.728 0.959999 53.888 1.056 54.016 1.152L55.424 2.144C55.616 2.272 55.712 2.4 55.712 2.496ZM52.96 6.272V2.656H38.624V6.272H52.96ZM52.96 11.008V7.04H38.624V11.008H52.96ZM60.544 27.936C60.544 28.288 60.192 28.288 60.064 28.288H36.768C35.744 28.288 33.952 28.384 32.64 28.64L31.872 27.264C33.664 27.424 35.424 27.52 37.216 27.52H45.184C45.248 26.816 45.184 23.712 45.184 23.072H42.592C41.6 23.072 39.776 23.168 38.464 23.424L37.728 22.048C39.488 22.208 41.28 22.304 43.04 22.304H45.216C45.216 21.632 45.184 18.72 45.152 18.112H38.624C36.864 20.64 34.88 23.008 32.288 24.672L32.16 24.512C34.144 22.368 36.096 19.36 37.216 17.376C38.4 15.264 38.496 14.528 38.624 13.696L41.024 14.688C41.184 14.752 41.312 14.848 41.312 15.104C41.312 15.52 40.768 15.552 40.096 15.68C39.84 16.16 39.648 16.48 39.136 17.344H45.152C45.152 16.96 45.12 15.296 45.12 14.944C45.088 14.112 44.928 13.6 44.64 12.992L47.424 13.6C47.648 13.664 47.84 13.76 47.84 14.016C47.84 14.304 47.776 14.368 46.976 14.88C46.976 15.264 46.944 16.992 46.944 17.344H53.728L54.72 16C54.88 15.808 55.008 15.584 55.232 15.584C55.392 15.584 55.616 15.808 55.776 15.936L57.408 17.28C57.6 17.44 57.696 17.568 57.696 17.76C57.696 18.016 57.536 18.112 57.216 18.112H46.944V22.304H51.776L52.8 20.96C52.896 20.832 53.056 20.544 53.28 20.544C53.536 20.544 53.696 20.736 53.856 20.864L55.52 22.24C55.712 22.4 55.84 22.496 55.84 22.72C55.84 23.008 55.584 23.072 55.36 23.072H46.944V27.52H56.352L57.44 25.952C57.6 25.728 57.728 25.536 57.952 25.536C58.176 25.536 58.368 25.76 58.528 25.888L60.224 27.424C60.416 27.584 60.544 27.744 60.544 27.936Z" fill="#FBF0DA"/>
<path d="M91.744 21.024C91.744 21.184 91.616 21.28 91.328 21.504C91.104 21.664 91.008 21.76 90.752 21.952C90.72 22.784 91.008 27.36 91.008 27.776C91.008 28.704 90.112 28.864 89.856 28.864C89.184 28.864 89.184 28.672 89.216 27.168H80.992C81.024 27.392 81.056 28.384 81.024 28.544C80.992 29.216 80.16 29.408 79.808 29.408C79.232 29.408 79.232 28.928 79.232 28.704C79.232 28.672 79.264 28.224 79.264 27.968C79.36 26.08 79.36 20.96 79.36 18.848C79.36 16.896 79.36 12.704 79.232 10.944C79.2 10.304 79.136 10.048 79.072 9.696L81.216 10.784H87.808L88.48 10.144C88.896 9.76 88.928 9.696 89.088 9.696C89.184 9.696 89.248 9.696 89.632 10.08L90.4 10.816C90.56 10.944 90.656 11.104 90.656 11.296C90.656 11.52 90.496 11.616 90.368 11.68C89.856 11.968 89.856 11.968 89.568 12.224C89.536 12.992 89.792 16.352 89.792 17.024C89.792 17.888 89.184 18.272 88.576 18.272C87.936 18.272 87.936 17.984 87.936 17.184H80.992V20.768H88.96L89.568 20.192C89.92 19.84 89.952 19.776 90.048 19.776C90.112 19.776 90.112 19.776 90.592 20.096L91.424 20.64C91.488 20.672 91.744 20.832 91.744 21.024ZM87.936 16.416V11.552H80.992V16.416H87.936ZM89.216 26.4V21.536H80.992V26.4H89.216ZM76.608 5.024C76.608 5.696 76.064 5.952 75.712 5.952C75.2 5.952 75.04 5.76 74.144 4.704C73.472 3.904 72.672 3.232 71.744 2.592C69.856 5.824 68.416 7.776 67.104 9.376L68.736 10.336H70.688C70.592 8.48 70.496 7.648 70.304 6.816L72.608 7.712C72.896 7.808 73.024 7.872 73.024 8.064C73.024 8.32 72.8 8.448 72.64 8.544C72.448 8.64 72.352 8.736 72.192 8.832V10.336H73.76L74.4 9.792C74.464 9.728 74.752 9.472 74.848 9.472C74.88 9.472 75.168 9.664 75.232 9.728L76.032 10.304C76.32 10.528 76.416 10.592 76.416 10.72C76.416 10.912 76.032 11.168 75.68 11.392C75.68 15.04 75.712 17.408 75.904 19.264V19.52C75.904 20.32 74.752 20.512 74.528 20.512C74.112 20.512 74.112 20.288 74.08 19.552H68.608V25.824C69.152 25.728 71.392 25.216 73.76 24.48C72.896 22.688 72.48 22.272 72.032 21.888L72.128 21.664C74.048 22.72 74.24 22.816 74.72 23.232C74.976 23.424 76.544 24.736 76.544 25.952C76.544 26.496 76.32 27.264 75.552 27.264C74.816 27.264 74.656 26.816 74.272 25.76C74.208 25.568 74.08 25.216 73.888 24.8C73.088 25.152 71.392 25.888 70.112 26.432C68.096 27.296 67.008 27.808 66.08 28.256C65.984 28.896 65.888 29.12 65.6 29.12C65.44 29.12 65.216 29.024 65.024 28.672L63.776 26.336C64.128 26.4 64.288 26.432 64.48 26.432C64.928 26.432 66.368 26.272 67.072 26.144V15.616C67.072 12.096 67.04 11.36 66.816 9.696C65.024 11.776 63.84 12.704 63.136 13.248L62.944 13.088C65.376 10.304 68.608 5.056 69.984 2.144C70.432 1.216 70.464 0.544001 70.496 0L72.896 1.248C73.056 1.312 73.184 1.472 73.184 1.664C73.184 2.112 72.352 2.24 71.904 2.304L71.872 2.368C75.008 2.816 76.608 4.128 76.608 5.024ZM74.08 14.528V11.104H68.608V14.528H74.08ZM74.08 18.784V15.296H68.608V18.784H74.08ZM92.928 6.752C92.928 7.2 92.416 7.2 92.192 7.2C91.936 7.2 90.912 7.136 90.592 7.136C89.44 7.904 89.312 7.968 88.448 8.608L88.256 8.416C88.896 7.392 89.344 5.888 89.344 5.824H79.424C79.456 6.048 79.488 6.336 79.488 6.752C79.488 7.072 79.488 9.376 77.888 9.376C77.12 9.376 76.896 8.864 76.896 8.512C76.896 8 77.152 7.648 77.792 6.752C78.08 6.368 78.624 4.992 78.496 3.456H78.752C78.944 3.84 79.072 4.128 79.296 5.056H83.52C83.52 4.672 83.552 1.92 82.848 0.32L85.792 1.152C86.016 1.216 86.208 1.248 86.208 1.536C86.208 1.76 86.08 1.92 85.952 2.016C85.856 2.112 85.312 2.432 85.216 2.496C85.184 3.2 85.216 4.352 85.184 5.056H89.376L90.08 4.384C90.4 4.096 90.4 4.032 90.528 4.032C90.752 4.032 90.88 4.224 91.104 4.48L92.64 6.272C92.864 6.528 92.928 6.592 92.928 6.752Z" fill="#FBF0DA"/>
</svg>
