<svg width="92" height="29" viewBox="0 0 92 29" fill="none" xmlns="http://www.w3.org/2000/svg">
<path d="M26.464 1.536C26.464 1.952 25.92 2.208 25.344 2.464V3.04L25.28 13.536C25.28 13.888 25.536 23.712 25.536 25.6C25.536 26.72 25.536 26.848 25.216 27.104C24.864 27.36 24.224 27.52 23.936 27.52C23.424 27.52 23.232 27.264 23.232 26.816C23.232 26.464 23.36 25.024 23.36 24.704C23.52 19.264 23.584 13.824 23.584 11.424C23.584 3.68 23.328 1.984 23.04 0.191999L25.984 1.12C26.336 1.248 26.464 1.344 26.464 1.536ZM16.448 2.208C16.448 2.56 15.776 2.976 15.392 3.232C15.392 11.552 15.392 12.48 15.552 21.248C15.552 21.696 15.584 23.648 15.584 24.064C15.584 25.216 14.144 25.216 14.08 25.216C13.376 25.216 13.376 24.832 13.376 24.544C13.376 24.384 13.504 22.432 13.504 22.144C13.728 18.208 13.728 14.176 13.728 10.176C13.728 8.576 13.696 3.936 13.568 2.592C13.504 2.08 13.44 1.6 13.344 1.184L15.904 1.856C16.352 1.984 16.448 2.048 16.448 2.208ZM8.064 1.792C8.064 2.08 7.744 2.368 6.72 2.88C6.72 2.912 6.688 3.264 6.688 3.296L6.656 13.92C6.656 17.664 5.888 25.024 0.128 27.872L0 27.68C3.2 24.736 4.992 21.312 4.992 9.056C4.992 6.144 4.96 3.392 4.576 0.48L7.648 1.44C7.904 1.504 8.064 1.568 8.064 1.792Z" fill="#FBF0DA"/>
<path d="M47.296 25.312L47.232 24.96C56.8 21.664 57.248 14.784 57.248 13.12C57.248 7.52 51.936 4.512 47.232 4.512C46.56 4.512 46.368 4.576 46.048 4.672C47.616 5.984 47.616 6.944 47.616 7.104C47.616 7.488 47.52 7.616 46.848 9.024C42.944 17.216 42.592 18.016 40.768 20.736C40.608 20.96 39.584 22.464 38.944 22.72C38.752 22.816 38.528 22.848 38.336 22.848C37.6 22.848 37.376 22.496 36.48 21.216C36.256 20.896 36.064 20.736 35.616 20.352C34.368 19.328 33.952 18.208 33.952 16.032C33.952 9.6 39.36 3.552 47.552 3.552C53.408 3.552 59.2 6.88 59.2 13.504C59.2 19.36 54.496 24.608 47.296 25.312ZM40.864 17.728L43.616 12.512C44.576 10.72 45.504 8.224 45.504 6.944C45.504 5.856 44.864 5.184 44.608 4.896C41.024 5.184 35.616 9.92 35.616 16.192C35.616 18.624 37.152 20.768 38.4 20.768C38.592 20.768 38.816 20.736 39.008 20.544C39.712 19.84 40.288 18.784 40.864 17.728Z" fill="#FBF0DA"/>
<path d="M91.36 1.92C91.36 2.112 90.816 2.432 90.336 2.688C90.336 9.024 90.368 13.504 90.4 14.464C90.432 17.12 90.592 21.44 90.592 24.096C90.592 25.952 90.464 27.552 87.584 28.32C87.296 27.52 86.88 26.432 84.608 25.632V25.376C85.824 25.536 86.688 25.632 87.392 25.632C88.192 25.632 88.768 25.536 88.768 24.384C88.768 18.272 88.704 15.232 88.608 9.12H82.08C81.984 9.472 81.536 9.92 81.056 9.92C80.384 9.92 80.384 9.504 80.384 9.344C80.384 8.736 80.512 5.76 80.512 5.6C80.512 2.656 80.448 1.408 80.16 0.0639992L82.656 1.216H88.448L89.024 0.639999C89.184 0.48 89.344 0.351999 89.504 0.351999C89.664 0.351999 89.76 0.48 89.952 0.608L90.976 1.408C91.168 1.568 91.36 1.728 91.36 1.92ZM88.608 4.672V1.984H82.08V4.672H88.608ZM88.608 8.352V5.44H82.08V8.352H88.608ZM87.968 17.536C87.072 17.92 86.304 18.272 85.888 19.456C82.72 18.304 80.352 16.96 79.136 15.904C77.632 17.248 76.16 18.304 74.24 19.36L76.032 19.936H81.44L81.888 19.488C82.048 19.328 82.144 19.232 82.304 19.232C82.464 19.232 82.624 19.36 82.784 19.488L83.584 20.064C83.808 20.224 83.968 20.32 83.968 20.48C83.968 20.64 83.776 20.8 83.296 21.088C83.264 21.696 83.328 24.512 83.328 25.056C83.328 25.76 82.752 26.272 82.08 26.272C81.6 26.272 81.6 25.696 81.632 25.376H76.032C76 25.888 76 26.112 75.84 26.336C75.616 26.592 75.072 26.848 74.688 26.848C74.176 26.848 74.176 26.272 74.176 26.112C74.176 25.76 74.272 24.224 74.304 23.904C74.336 23.264 74.336 22.592 74.336 21.888C74.336 20.352 74.304 20.096 74.112 19.424C71.904 20.576 70.56 20.864 69.728 21.056L69.632 20.864C72.48 19.552 74.848 18.048 78.144 15.008C77.088 13.952 76.544 13.024 76.192 12.448C76 12.64 73.376 15.264 70.88 16.256L70.752 16C71.872 15.104 75.968 11.648 76.512 9.184L77.952 9.856C78.272 10.016 78.4 10.08 78.4 10.24C78.4 10.432 78.24 10.464 77.792 10.592C77.6 10.848 77.568 10.88 77.344 11.168H81.152L81.952 10.624C82.144 10.496 82.304 10.4 82.432 10.4C82.592 10.4 82.752 10.528 82.912 10.656L83.744 11.36C83.904 11.52 84.032 11.584 84.032 11.776C84.032 12.224 83.296 12.32 82.304 12.448C81.856 13.056 81.152 13.952 79.904 15.2C83.392 17.376 86.72 17.344 87.936 17.344L87.968 17.536ZM80.768 11.936H76.672C76.608 12.032 76.576 12.032 76.512 12.128C77.472 13.408 78.304 14.08 78.752 14.432C80.032 13.184 80.48 12.448 80.768 11.936ZM81.664 24.608V20.704H76.032V24.608H81.664ZM76.992 1.824C76.992 2.016 76.832 2.112 76.672 2.208C76.576 2.272 76.192 2.496 76.032 2.592V5.696C76.032 6.144 76.16 8.128 76.16 8.544C76.16 9.568 75.136 9.824 74.88 9.824C74.528 9.824 74.4 9.6 74.368 9.12H68.224C68.224 9.6 68.256 21.504 68.288 23.84C68.32 24.8 68.416 26.272 68.416 27.2C68.416 28.48 67.232 28.608 67.04 28.608C66.496 28.608 66.4 28.224 66.4 27.776C66.4 27.52 66.464 27.136 66.464 26.912C66.528 25.824 66.624 23.808 66.624 16.896C66.624 12.416 66.624 5.952 66.56 1.664C66.56 0.736 66.528 0.544001 66.4 0L68.896 1.216H74.176L74.72 0.704C74.912 0.544001 75.008 0.416 75.168 0.416C75.328 0.416 75.488 0.544001 75.648 0.639999L76.608 1.344C76.768 1.472 76.992 1.632 76.992 1.824ZM74.368 4.672V1.984H68.224V4.672H74.368ZM74.368 8.352V5.44H68.224V8.352H74.368Z" fill="#FBF0DA"/>
</svg>
