<svg width="189" height="30" viewBox="0 0 189 30" fill="none" xmlns="http://www.w3.org/2000/svg">
<path d="M30.816 11.072L30.752 11.424C30.368 11.584 29.952 11.872 29.248 12.384C28.8 12.704 28.608 12.96 28.224 13.536C24.864 11.968 19.392 8.992 15.808 2.4C15.648 2.464 15.616 2.464 15.168 2.56C9.984 10.112 4.224 14.336 0.096 15.904L0 15.712C3.232 13.472 8.48 9.568 12.992 2.144C13.728 0.927999 13.824 0.543999 13.984 0L16.512 1.344C16.64 1.408 16.8 1.504 16.8 1.728C16.8 2.112 16.288 2.272 16.128 2.336C19.264 6.688 24.96 10.592 30.816 11.072ZM28.8 27.424C28.8 27.712 28.512 27.744 28.288 27.744H6.976C5.856 27.744 4.064 27.872 2.88 28.128L2.112 26.752C4.512 26.944 6.848 26.976 7.424 26.976H14.272V20.832H9.696C8.576 20.832 6.784 20.96 5.568 21.216L4.832 19.84C7.232 20.032 9.536 20.064 10.144 20.064H14.272V14.304H11.008C9.888 14.304 8.128 14.432 6.912 14.688L6.144 13.28C8.544 13.472 10.88 13.536 11.456 13.536H20.192L21.216 12.16C21.28 12.032 21.536 11.744 21.696 11.744C21.824 11.744 21.952 11.84 22.304 12.096L24.192 13.472C24.32 13.568 24.512 13.728 24.512 13.952C24.512 14.272 24.224 14.304 24.032 14.304H16.032V20.064H21.408L22.24 18.752C22.368 18.56 22.528 18.368 22.72 18.368C22.912 18.368 23.008 18.432 23.328 18.688L25.12 20C25.248 20.096 25.44 20.288 25.44 20.48C25.44 20.8 25.184 20.832 24.96 20.832H16.032V26.976H24.48L25.76 25.568C26.08 25.216 26.112 25.184 26.24 25.184C26.4 25.184 26.752 25.408 26.848 25.504L28.48 26.912C28.672 27.104 28.8 27.2 28.8 27.424Z" fill="#FBF0DA"/>
<path d="M46.208 2.848C46.208 3.168 45.888 3.296 45.184 3.616C45.152 4.064 45.12 4.576 45.12 5.344C45.12 6.048 45.248 9.28 45.248 9.952C45.248 10.72 45.248 11.712 44 11.712C43.36 11.712 43.36 11.36 43.36 11.136C43.36 10.976 43.392 10.656 43.424 10.496H36.704V19.392L36.768 27.264C36.768 28.16 36.736 29.504 35.424 29.504C34.752 29.504 34.72 28.896 34.72 28.512C34.72 28.16 34.784 27.584 34.784 27.232C34.976 22.464 35.04 15.456 35.04 10.432C35.04 8.64 35.04 3.84 34.912 2.4C34.88 1.92 34.816 1.664 34.72 1.312L36.928 2.464H43.104L43.968 1.6C44.096 1.44 44.192 1.376 44.32 1.376C44.512 1.376 44.768 1.568 44.832 1.632L45.952 2.496C46.08 2.624 46.208 2.72 46.208 2.848ZM43.456 5.888V3.232H36.704V5.888H43.456ZM43.456 9.728V6.656H36.704V9.728H43.456ZM60.032 2.88C60.032 3.2 59.712 3.36 58.944 3.776C58.912 6.208 58.88 8.672 58.88 11.104C58.88 15.264 59.104 21.952 59.104 26.112C59.104 28.128 57.408 29.024 55.968 29.376C55.168 28.064 54.848 27.552 52.992 26.784V26.656C53.504 26.624 55.808 26.72 56.288 26.72C56.992 26.72 57.088 26.368 57.152 26.016C57.216 25.632 57.248 11.712 57.248 10.496H50.496C50.496 10.688 50.496 11.04 50.208 11.296C50.048 11.424 49.76 11.616 49.44 11.616C48.64 11.616 48.64 10.976 48.64 10.72C48.64 10.496 48.672 9.568 48.704 9.376C48.736 8.032 48.8 6.112 48.8 4.544C48.8 3.168 48.736 2.592 48.576 1.376L50.688 2.464H56.896L57.6 1.76C57.92 1.44 57.984 1.408 58.08 1.408C58.208 1.408 58.272 1.472 58.496 1.632L59.744 2.464C59.872 2.56 60.032 2.688 60.032 2.88ZM57.248 5.888V3.232H50.464V5.888H57.248ZM57.248 9.728V6.656H50.464V9.728H57.248ZM55.744 19.328C55.744 19.616 55.488 19.68 55.264 19.68H50.208V20.576L50.304 26.24C50.304 26.816 50.304 27.936 49.184 27.936C48.672 27.936 48.448 27.584 48.448 27.008C48.448 26.624 48.512 24.992 48.544 24.64V19.68H45.12C44.832 23.264 43.264 26.304 38.464 27.712L38.4 27.552C41.568 25.92 43.264 22.88 43.52 19.68C42.144 19.68 40.416 19.84 39.296 20.032L38.56 18.656C40.832 18.848 42.368 18.88 43.584 18.912C43.616 17.792 43.616 16.736 43.616 15.168C43.2 15.2 41.76 15.264 40.576 15.52L39.808 14.144C42.208 14.336 44.544 14.368 45.152 14.368H51.392L52.032 13.696C52.352 13.344 52.384 13.28 52.512 13.28C52.672 13.28 52.8 13.376 53.12 13.6L54.08 14.304C54.208 14.432 54.4 14.56 54.4 14.816C54.4 15.104 54.144 15.136 53.92 15.136H50.208V18.912H52.704L53.28 18.24C53.632 17.856 53.664 17.824 53.792 17.824C53.888 17.824 53.952 17.792 54.4 18.112L55.424 18.848C55.552 18.944 55.744 19.104 55.744 19.328ZM48.576 15.136H45.28C45.28 16.64 45.248 17.792 45.184 18.912H48.544C48.544 18.368 48.544 15.744 48.576 15.136Z" fill="#FBF0DA"/>
<path d="M71.232 3.744C72.672 4.96 73.152 5.248 75.04 5.248C76.64 5.248 81.568 4.736 82.848 4.288C83.872 3.904 84 3.872 84.32 3.872C84.832 3.872 86.56 4.064 86.56 4.896C86.56 5.696 85.664 5.76 83.2 5.92C81.696 6.016 74.4 6.784 73.664 6.784C73.024 6.784 71.488 6.08 71.232 3.744ZM71.84 28L71.776 27.776C79.744 24.288 84.736 16.192 85.504 11.456C83.04 11.648 73.888 12.512 72.448 13.44C71.84 13.856 71.776 13.888 71.552 13.888C70.72 13.888 68.544 12.032 68.544 10.336C68.544 10.08 68.576 9.824 68.704 9.344C69.472 10.56 70.656 11.424 72.16 11.424C73.344 11.424 84.032 10.56 84.864 10.368C85.152 10.304 85.44 10.208 86.24 9.504C86.432 9.312 86.56 9.248 86.688 9.248C87.04 9.248 89.216 10.848 89.216 11.456C89.216 11.776 89.12 11.808 88.192 12.256C87.552 12.576 87.52 12.64 87.136 13.664C86.848 14.368 84.352 20.448 79.712 24.256C77.44 26.144 74.752 27.488 71.84 28Z" fill="#FBF0DA"/>
<path d="M106.144 27.84L106.048 27.584C112.096 24.224 115.168 20.544 117.088 14.752C117.92 12.256 118.336 10.112 118.336 9.856C118.336 9.76 118.304 9.76 118.208 9.76C117.888 9.76 116.576 9.888 116.32 9.888C110.752 10.272 108.16 10.112 105.6 10.464C105.408 10.464 104.576 10.624 104.416 10.624C104.352 10.624 103.776 10.4 103.456 10.24C103.552 11.552 103.68 15.648 103.68 16.896C103.68 17.664 103.296 17.984 102.976 17.984C102.304 17.984 101.76 16.704 101.76 16.192C101.76 16.064 101.856 15.488 101.888 15.36C101.92 15.04 101.952 14.336 101.952 14.048C101.952 9.888 101.664 9.312 100.064 8.192C101.856 8.064 102.336 8.384 102.976 8.832C103.776 9.376 103.84 9.408 104.16 9.408C104.416 9.408 107.712 9.248 108.192 9.216C109.056 9.184 109.152 9.152 110.112 9.12C110.08 5.216 110.048 5.088 109.888 4.8C109.632 4.416 109.344 4.128 107.456 3.776C107.776 3.552 108.608 2.944 109.408 2.944C110.4 2.944 111.712 3.68 112.064 3.904C112.256 4 112.384 4.128 112.384 4.416C112.384 4.672 111.968 5.728 111.904 5.92C111.808 6.272 111.744 6.624 111.648 8C111.616 8.576 111.616 8.8 111.616 9.024C112.288 8.992 116.8 8.768 117.184 8.704C117.6 8.64 118.24 8.448 118.624 8.16C118.912 7.968 118.976 7.904 119.104 7.904C119.296 7.904 119.392 8 120.288 8.736C120.576 8.992 121.536 9.824 121.536 10.112C121.536 10.368 121.44 10.432 120.64 10.88C119.968 11.232 119.936 11.36 119.584 12.576C118.112 17.888 116.448 20.928 112.864 24.064C109.76 26.784 107.264 27.52 106.144 27.84Z" fill="#FBF0DA"/>
<path d="M133.248 4.672C137.12 4.608 141.312 6.24 141.312 8.256C141.312 8.48 141.152 9.344 140.224 9.344C139.648 9.344 139.392 9.088 138.4 8.096C136.64 6.336 135.04 5.536 133.248 4.672ZM154.432 7.584L154.624 7.712C152.224 12.416 148.512 16.256 144.384 19.52C142.912 20.704 141.632 21.6 139.968 22.752C139.04 23.392 138.944 23.52 137.92 24.704C137.696 24.96 137.472 25.184 137.056 25.184C136 25.184 134.048 22.752 134.048 21.408C134.048 20.864 134.304 20.448 134.496 20.064C135.072 21.376 135.904 22.112 136.544 22.112C137.568 22.112 140.544 20 141.728 19.136C148.64 14.08 150.816 11.744 154.432 7.584Z" fill="#FBF0DA"/>
<path d="M166.688 3.424C167.296 3.36 167.616 3.328 168.064 3.328C169.696 3.328 172.352 3.904 173.152 4.736C173.696 5.28 174.048 6.08 174.048 6.656C174.048 7.2 173.856 7.52 173.44 7.52C173.024 7.52 172.864 7.36 171.52 6.272C169.728 4.8 168.736 4.288 166.688 3.424ZM162.88 10.624C163.488 10.56 164 10.496 164.768 10.496C166.336 10.496 168.576 10.688 169.472 11.296C170.464 11.968 170.88 12.864 170.88 13.568C170.88 14.016 170.72 14.24 170.208 14.24C169.76 14.24 167.584 12.704 167.072 12.416C165.696 11.648 164.544 11.2 162.88 10.624ZM182.912 1.472C187.264 1.408 188.512 3.296 188.512 4.256C188.512 4.8 188.128 5.024 187.808 5.024C187.456 5.024 187.424 5.024 186.56 4.064C185.632 3.072 184.384 2.304 182.912 1.472ZM186.944 9.536L187.072 9.728C182.944 16.032 177.728 21.6 171.2 25.376C170.752 25.632 170.72 25.664 170.24 26.272C169.888 26.72 169.632 26.88 169.28 26.88C168.928 26.88 167.872 26.112 167.168 25.248C166.56 24.48 166.304 23.52 166.432 22.048C168.096 23.84 168.448 24.096 168.96 24.096C170.368 24.096 178.144 19.392 186.944 9.536ZM180.384 3.872C181.088 3.904 182.176 3.968 184.192 5.152C184.576 5.376 185.568 5.984 185.568 7.168C185.568 7.776 185.28 8.064 184.896 8.064C184.544 8.064 184.48 7.968 183.744 7.072C181.984 4.928 181.024 4.32 180.384 3.872Z" fill="#FBF0DA"/>
</svg>
