<svg width="167" height="57" viewBox="0 0 167 57" fill="none" xmlns="http://www.w3.org/2000/svg">
<g clip-path="url(#clip0_470_553)">
<path d="M83.0427 1.10742H0.672241V56.021H83.0427V1.10742Z" fill="#343434"/>
<path d="M41.8607 7.20605L42.5387 9.32731L44.76 9.31762L42.9552 10.6156L43.6526 12.7239L41.8607 11.4098L40.0655 12.7271L40.7629 10.6156L38.9548 9.31762L41.1794 9.32731L41.8607 7.20605Z" fill="white"/>
<path d="M32.7073 9.66016L33.3886 11.7782L35.6067 11.7685L33.8019 13.0697L34.4993 15.178L32.7073 13.8639L30.9122 15.178L31.6096 13.0697L29.8047 11.7685L32.0293 11.7782L32.7073 9.66016Z" fill="white"/>
<path d="M26.0078 16.3604L26.6858 18.4784L28.9072 18.4719L27.1023 19.7699L27.7997 21.8782L26.0078 20.5641L24.2126 21.8814L24.91 19.7699L23.1052 18.4719L25.3298 18.4816L26.0078 16.3604Z" fill="white"/>
<path d="M23.5572 25.5137L24.2352 27.6317L26.4566 27.622L24.6517 28.9199L25.3491 31.0315L23.5572 29.7174L21.7621 31.0315L22.4595 28.9199L20.6514 27.622L22.876 27.6317L23.5572 25.5137Z" fill="white"/>
<path d="M26.011 34.6631L26.689 36.7843L28.9072 36.7747L27.1023 38.0726L27.7997 40.1809L26.0078 38.8668L24.2159 40.1841L24.9133 38.0726L23.1052 36.7747L25.3298 36.7843L26.011 34.6631Z" fill="white"/>
<path d="M32.7106 41.3633L33.3886 43.4845L35.6067 43.4748L33.8051 44.7728L34.4993 46.8843L32.7106 45.567L30.9154 46.8843L31.6128 44.7728L29.8047 43.4748L32.0293 43.4845L32.7106 41.3633Z" fill="white"/>
<path d="M41.8639 43.8164L42.5419 45.9344L44.7601 45.9247L42.9552 47.2227L43.6526 49.3342L41.8607 48.0202L40.0688 49.3342L40.7662 47.2227L38.9581 45.9247L41.1827 45.9344L41.8639 43.8164Z" fill="white"/>
<path d="M51.014 41.3633L51.692 43.4845L53.9134 43.4748L52.1085 44.7728L52.8059 46.8811L51.014 45.567L49.2189 46.8843L49.9163 44.7728L48.1082 43.4748L50.3328 43.4845L51.014 41.3633Z" fill="white"/>
<path d="M57.7136 34.6631L58.3916 36.7811L60.6097 36.7747L58.8081 38.0726L59.5055 40.1809L57.7136 38.8668L55.9184 40.1841L56.6158 38.0726L54.8077 36.7747L57.0323 36.7811L57.7136 34.6631Z" fill="white"/>
<path d="M60.1674 25.5098L60.8454 27.6278L63.0635 27.6213L61.2587 28.9193L61.9561 31.0308L60.1642 29.7135L58.369 31.0308L59.0696 28.9193L57.2616 27.6213L59.4861 27.6278L60.1674 25.5098Z" fill="white"/>
<path d="M57.7136 16.3604L58.3916 18.4784L60.6097 18.4687L58.8049 19.7666L59.5055 21.8782L57.7136 20.5641L55.9184 21.8814L56.6158 19.7699L54.8077 18.4687L57.0323 18.4784L57.7136 16.3604Z" fill="white"/>
<path d="M51.014 9.66016L51.692 11.7782L53.9101 11.7685L52.1053 13.0664L52.8027 15.178L51.014 13.8639L49.2189 15.1812L49.9163 13.0697L48.1082 11.7685L50.3328 11.7782L51.014 9.66016Z" fill="white"/>
<path d="M105.091 13.8413C104.752 13.9898 104.446 14.1286 104.174 14.2578C103.9 14.3869 103.542 14.5225 103.099 14.6646C102.725 14.7808 102.318 14.8809 101.876 14.9649C101.437 15.0488 100.952 15.0908 100.423 15.0908C99.4283 15.0908 98.521 14.9519 97.7074 14.671C96.8938 14.3901 96.1835 13.9543 95.5829 13.357C94.9921 12.7726 94.5304 12.03 94.1978 11.1292C93.8653 10.2284 93.7006 9.18227 93.7006 7.98765C93.7006 6.85761 93.862 5.8438 94.1817 4.95268C94.5013 4.06156 94.963 3.30928 95.5635 2.69259C96.1479 2.09529 96.8518 1.64004 97.6816 1.32686C98.5081 1.01367 99.4251 0.855469 100.436 0.855469C101.175 0.855469 101.911 0.945872 102.644 1.12345C103.38 1.30103 104.194 1.61421 105.091 2.063V4.22945H104.953C104.197 3.59663 103.445 3.13493 102.702 2.84757C101.96 2.56022 101.162 2.41493 100.313 2.41493C99.6188 2.41493 98.9924 2.52793 98.4371 2.75071C97.8817 2.97672 97.3845 3.32542 96.9487 3.79681C96.5257 4.25851 96.1931 4.83968 95.9574 5.54353C95.7218 6.24739 95.6023 7.06102 95.6023 7.98442C95.6023 8.90783 95.7314 9.77958 95.993 10.4737C96.2545 11.1679 96.5903 11.7329 97.0035 12.172C97.433 12.6273 97.9366 12.9631 98.5113 13.1826C99.0861 13.4022 99.693 13.5087 100.332 13.5087C101.211 13.5087 102.037 13.357 102.806 13.0567C103.574 12.7564 104.294 12.3044 104.962 11.7006H105.091V13.8413Z" fill="white"/>
<path d="M113.36 6.42492H113.266C113.008 6.36357 112.756 6.31837 112.514 6.29254C112.272 6.26348 111.985 6.25057 111.652 6.25057C111.116 6.25057 110.6 6.37003 110.102 6.60572C109.605 6.84142 109.124 7.14815 108.662 7.52267V14.8357H106.929V4.53613H108.662V6.05685C109.35 5.50474 109.957 5.11084 110.483 4.8816C111.01 4.65237 111.546 4.53613 112.091 4.53613C112.391 4.53613 112.611 4.54259 112.747 4.55873C112.882 4.57488 113.086 4.60394 113.354 4.64591V6.42492H113.36Z" fill="white"/>
<path d="M123.324 9.86695H115.733C115.733 10.4998 115.827 11.0519 116.021 11.5233C116.211 11.9947 116.473 12.3789 116.805 12.6791C117.125 12.973 117.506 13.1957 117.945 13.3443C118.384 13.4928 118.868 13.567 119.398 13.567C120.098 13.567 120.805 13.4282 121.513 13.1473C122.223 12.8664 122.73 12.592 123.03 12.3208H123.124V14.2128C122.539 14.4581 121.942 14.6648 121.335 14.8294C120.728 14.9941 120.085 15.0781 119.417 15.0781C117.709 15.0781 116.372 14.6164 115.414 13.6897C114.455 12.7631 113.974 11.449 113.974 9.74749C113.974 8.04597 114.432 6.72543 115.352 5.73422C116.272 4.74301 117.48 4.24902 118.981 4.24902C120.37 4.24902 121.442 4.65584 122.197 5.46624C122.949 6.27664 123.327 7.42929 123.327 8.92417V9.86372L123.324 9.86695ZM121.635 8.53673C121.629 7.62624 121.4 6.92238 120.948 6.42516C120.496 5.92794 119.808 5.67933 118.888 5.67933C117.967 5.67933 117.218 5.95377 116.67 6.49942C116.121 7.0483 115.807 7.72633 115.733 8.53673H121.635Z" fill="white"/>
<path d="M133.397 14.8358H131.673V13.7381C131.518 13.8414 131.312 13.9899 131.05 14.1772C130.789 14.3645 130.537 14.513 130.288 14.626C129.998 14.768 129.668 14.8843 129.294 14.9811C128.919 15.0748 128.48 15.1232 127.976 15.1232C127.05 15.1232 126.262 14.8165 125.616 14.1998C124.97 13.5863 124.648 12.8018 124.648 11.8493C124.648 11.068 124.815 10.4351 125.151 9.95406C125.487 9.47299 125.965 9.092 126.585 8.81433C127.211 8.53667 127.967 8.3494 128.845 8.25254C129.723 8.15568 130.669 8.08142 131.676 8.02976V7.76178C131.676 7.36788 131.609 7.04178 131.47 6.78349C131.331 6.52519 131.134 6.32178 130.876 6.17326C130.63 6.0312 130.333 5.93757 129.991 5.88591C129.646 5.83748 129.287 5.81165 128.913 5.81165C128.457 5.81165 127.951 5.873 127.392 5.99246C126.833 6.11192 126.255 6.28627 125.658 6.51228H125.565V4.74941C125.904 4.65578 126.391 4.55569 127.03 4.44591C127.67 4.33614 128.299 4.28125 128.922 4.28125C129.649 4.28125 130.278 4.3426 130.818 4.46206C131.357 4.58152 131.822 4.78493 132.216 5.07551C132.603 5.35963 132.897 5.72448 133.1 6.17326C133.304 6.62205 133.404 7.17739 133.404 7.8425V14.8326L133.397 14.8358ZM131.673 12.3013V9.43424C131.144 9.46653 130.521 9.51173 129.807 9.57308C129.09 9.63442 128.525 9.72483 128.106 9.84106C127.608 9.98312 127.205 10.2027 126.898 10.4997C126.591 10.7968 126.436 11.2068 126.436 11.7298C126.436 12.3207 126.614 12.763 126.972 13.0633C127.327 13.3603 127.873 13.5121 128.606 13.5121C129.216 13.5121 129.772 13.3926 130.275 13.1569C130.779 12.9212 131.247 12.6371 131.676 12.3046L131.673 12.3013Z" fill="white"/>
<path d="M141.324 14.746C140.998 14.8332 140.643 14.9042 140.258 14.9591C139.874 15.014 139.532 15.043 139.228 15.043C138.176 15.043 137.378 14.7589 136.829 14.1939C136.281 13.6289 136.009 12.7216 136.009 11.4721V5.99302H134.837V4.53688H136.009V1.57617H137.743V4.53688H141.321V5.99302H137.743V10.6875C137.743 11.23 137.756 11.6497 137.779 11.9564C137.805 12.2599 137.888 12.544 138.037 12.8088C138.173 13.0542 138.36 13.235 138.596 13.348C138.831 13.461 139.193 13.5191 139.68 13.5191C139.961 13.5191 140.258 13.4771 140.565 13.3932C140.872 13.3092 141.095 13.2414 141.23 13.1866H141.324V14.746Z" fill="white"/>
<path d="M144.698 2.81303H142.741V1.01465H144.698V2.81303ZM144.588 14.8367H142.854V4.53715H144.588V14.8399V14.8367Z" fill="white"/>
<path d="M156.26 4.53613L152.091 14.8389H150.348L146.206 4.53613H148.088L151.278 12.7338L154.442 4.53613H156.26Z" fill="white"/>
<path d="M166.143 9.86695H158.552C158.552 10.4998 158.646 11.0519 158.839 11.5233C159.03 11.9947 159.291 12.3789 159.624 12.6791C159.944 12.973 160.325 13.1957 160.764 13.3443C161.203 13.4928 161.687 13.567 162.217 13.567C162.917 13.567 163.624 13.4282 164.331 13.1473C165.042 12.8664 165.549 12.592 165.849 12.3208H165.943V14.2128C165.358 14.4581 164.761 14.6648 164.154 14.8294C163.547 14.9941 162.904 15.0781 162.236 15.0781C160.528 15.0781 159.191 14.6164 158.232 13.6897C157.274 12.7631 156.792 11.449 156.792 9.74749C156.792 8.04597 157.251 6.72543 158.171 5.73422C159.091 4.74301 160.299 4.24902 161.8 4.24902C163.188 4.24902 164.26 4.65584 165.013 5.46624C165.765 6.27664 166.143 7.42929 166.143 8.92417V9.86372V9.86695ZM164.457 8.53673C164.451 7.62624 164.222 6.92238 163.77 6.42516C163.318 5.92794 162.63 5.67933 161.71 5.67933C160.79 5.67933 160.041 5.95377 159.492 6.49942C158.943 7.0483 158.63 7.72633 158.555 8.53673H164.457Z" fill="white"/>
<path d="M103.535 33.7238H94.4884V19.9922H103.535V21.6162H96.3126V25.3776H103.535V27.0017H96.3126V32.103H103.535V33.727V33.7238Z" fill="white"/>
<path d="M114.096 33.7243H112.362V32.5814C111.778 33.0431 111.219 33.395 110.683 33.6436C110.148 33.889 109.56 34.0117 108.914 34.0117C107.833 34.0117 106.99 33.6824 106.386 33.0205C105.782 32.3586 105.482 31.39 105.482 30.1114V23.4248H107.216V29.2913C107.216 29.8144 107.242 30.2599 107.29 30.6345C107.339 31.0058 107.445 31.3254 107.603 31.5902C107.768 31.8614 107.984 32.0583 108.249 32.181C108.514 32.3037 108.898 32.3651 109.402 32.3651C109.85 32.3651 110.341 32.2488 110.874 32.0164C111.407 31.7839 111.901 31.4836 112.362 31.122V23.4313H114.096V33.734V33.7243Z" fill="white"/>
<path d="M123.146 25.3129H123.053C122.794 25.2516 122.543 25.2064 122.3 25.1805C122.058 25.1515 121.771 25.1386 121.438 25.1386C120.902 25.1386 120.386 25.258 119.889 25.4937C119.391 25.7294 118.91 26.0361 118.449 26.4107V33.7237H116.715V23.4209H118.449V24.9416C119.136 24.3895 119.743 23.9956 120.27 23.7664C120.796 23.5371 121.332 23.4209 121.877 23.4209C122.178 23.4209 122.397 23.4274 122.533 23.4435C122.668 23.4596 122.872 23.4887 123.14 23.5307V25.3097L123.146 25.3129Z" fill="white"/>
<path d="M133.294 28.5774C133.294 30.2563 132.865 31.58 132.003 32.5519C131.14 33.5237 129.988 34.008 128.545 34.008C127.101 34.008 125.929 33.5237 125.074 32.5519C124.215 31.58 123.786 30.2563 123.786 28.5774C123.786 26.8984 124.215 25.5715 125.074 24.5964C125.933 23.6213 127.088 23.1338 128.545 23.1338C130.001 23.1338 131.14 23.6213 132.003 24.5964C132.865 25.5715 133.294 26.8984 133.294 28.5774ZM131.505 28.5774C131.505 27.2439 131.244 26.2527 130.721 25.6037C130.198 24.9548 129.471 24.6319 128.545 24.6319C127.618 24.6319 126.872 24.9548 126.356 25.6037C125.836 26.2527 125.577 27.2439 125.577 28.5774C125.577 29.9108 125.839 30.8471 126.362 31.5155C126.885 32.1838 127.612 32.5164 128.548 32.5164C129.484 32.5164 130.194 32.187 130.721 31.5252C131.247 30.8633 131.509 29.8818 131.509 28.5774H131.505Z" fill="white"/>
<path d="M144.42 28.4486C144.42 29.2848 144.301 30.05 144.062 30.741C143.823 31.4319 143.484 32.0195 143.048 32.4974C142.641 32.9526 142.163 33.3045 141.614 33.5532C141.066 33.8018 140.481 33.9277 139.868 33.9277C139.332 33.9277 138.847 33.8696 138.415 33.7533C137.982 33.6371 137.54 33.4563 137.091 33.2077V37.5245H135.357V23.4248H137.091V24.5031C137.553 24.1157 138.069 23.7928 138.644 23.5313C139.219 23.2698 139.832 23.1406 140.484 23.1406C141.727 23.1406 142.693 23.6088 143.384 24.5483C144.075 25.4847 144.42 26.789 144.42 28.4551V28.4486ZM142.631 28.497C142.631 27.254 142.418 26.3273 141.995 25.7107C141.572 25.0972 140.92 24.7873 140.039 24.7873C139.542 24.7873 139.041 24.8938 138.534 25.1101C138.031 25.3265 137.546 25.6073 137.088 25.9593V31.7968C137.579 32.0195 138.001 32.1681 138.357 32.2488C138.709 32.3295 139.112 32.3682 139.561 32.3682C140.526 32.3682 141.279 32.0421 141.821 31.3899C142.36 30.7377 142.631 29.7724 142.631 28.4938V28.497Z" fill="white"/>
<path d="M155.243 28.7553H147.652C147.652 29.3881 147.746 29.9403 147.939 30.4116C148.13 30.883 148.391 31.2672 148.724 31.5707C149.044 31.8646 149.425 32.0873 149.864 32.2359C150.303 32.3844 150.787 32.4586 151.317 32.4586C152.017 32.4586 152.724 32.3198 153.431 32.0389C154.142 31.758 154.649 31.4836 154.949 31.2124H155.043V33.1044C154.458 33.3498 153.861 33.5564 153.254 33.7211C152.647 33.8857 152.004 33.9697 151.336 33.9697C149.628 33.9697 148.291 33.508 147.332 32.5813C146.373 31.6547 145.892 30.3406 145.892 28.6391C145.892 26.9376 146.351 25.617 147.271 24.6258C148.191 23.6346 149.399 23.1406 150.9 23.1406C152.288 23.1406 153.36 23.5474 154.116 24.3578C154.868 25.1682 155.246 26.3209 155.246 27.8158V28.7553H155.243ZM153.554 27.4251C153.548 26.5146 153.318 25.8108 152.866 25.3135C152.414 24.8163 151.727 24.5677 150.806 24.5677C149.886 24.5677 149.137 24.8421 148.588 25.3878C148.039 25.9367 147.726 26.6147 147.652 27.4251H153.554Z" fill="white"/>
<path d="M138.279 47.4712H140.956L140.601 46.6123H138.641L138.792 46.2475H140.449L140.094 45.3887H139.135H139.128H137.972L137.62 46.2475H138.789L138.634 46.6123H137.469L137.114 47.4712H138.273H138.279Z" fill="white"/>
<path d="M138.279 47.4712H140.956L140.601 46.6123H138.641L138.792 46.2475H140.449L140.094 45.3887H139.135H139.128H137.972L137.62 46.2475H138.789L138.634 46.6123H137.469L137.114 47.4712H138.273H138.279Z" fill="white" stroke="white" stroke-width="0.0613452"/>
<path d="M139.29 45.0249H139.942L139.558 44.0918H138.508L138.124 45.0249H139.283H139.29Z" fill="white"/>
<path d="M139.29 45.0249H139.942L139.558 44.0918H138.508L138.124 45.0249H139.283H139.29Z" fill="white" stroke="white" stroke-width="0.0613452"/>
<path d="M139.984 51.1434H141.149H142.47L142.118 50.2846H140.798L140.643 49.9197H141.963L141.611 49.0609H140.291L140.194 48.8252L140.094 49.0609L140.194 48.8252L140.287 49.0609H140.094H139.122L139.477 49.9197H139.742H140.639L140.791 50.2846H139.629L139.984 51.1434Z" fill="white"/>
<path d="M139.984 51.1434H141.149H142.47L142.118 50.2846H140.798L140.643 49.9197H141.963L141.611 49.0609H140.291L140.194 48.8252L140.094 49.0609L140.194 48.8252L140.287 49.0609H140.094H139.122L139.477 49.9197H139.742H140.639L140.791 50.2846H139.629L139.984 51.1434Z" fill="white" stroke="white" stroke-width="0.0613452"/>
<path d="M139.609 50.2354L139.742 49.9189L139.609 50.2354Z" fill="white"/>
<path d="M139.609 50.2354L139.742 49.9189L139.609 50.2354Z" fill="white" stroke="white" stroke-width="0.0613452"/>
<path d="M140.245 48.6954H141.459L141.107 47.8398H138.124H138.121H136.962L136.61 48.6954H137.779H140.139H140.245Z" fill="white"/>
<path d="M140.245 48.6954H141.459L141.107 47.8398H138.124H138.121H136.962L136.61 48.6954H137.779H140.139H140.245Z" fill="white" stroke="white" stroke-width="0.0613452"/>
<path d="M142.977 52.3654L142.622 51.5098H141.301H140.136L140.21 51.6906H137.856L137.93 51.5098H136.616L136.771 51.1417H138.085L138.441 50.2829H137.123L137.275 49.918H138.589L138.944 49.0592H137.627L137.779 48.6943L137.624 49.0592H136.458L136.103 49.918H137.272L137.114 50.2829H135.951L135.599 51.1417H136.765L136.613 51.5098H135.448L135.092 52.3654H136.245H142.977Z" fill="white"/>
<path d="M142.977 52.3654L142.622 51.5098H141.301H140.136L140.21 51.6906H137.856L137.93 51.5098H136.616L136.771 51.1417H138.085L138.441 50.2829H137.123L137.275 49.918H138.589L138.944 49.0592H137.627L137.779 48.6943L137.624 49.0592H136.458L136.103 49.918H137.272L137.114 50.2829H135.951L135.599 51.1417H136.765L136.613 51.5098H135.448L135.092 52.3654H136.245H142.977Z" fill="white" stroke="white" stroke-width="0.0613452"/>
<path d="M142.832 55.1787H141.669L142.018 56.0053H144.478L144.136 55.1787H142.832Z" fill="white"/>
<path d="M142.832 55.1787H141.669L142.018 56.0053H144.478L144.136 55.1787H142.832Z" fill="white" stroke="white" stroke-width="0.0613452"/>
<path d="M143.987 54.8139L143.632 53.9551H135.599H134.437L133.588 56.0053H136.051L136.397 55.1788H135.092H134.124V54.8139H135.238H136.552L136.846 54.1101H141.22L141.518 54.8139H142.677H143.987Z" fill="white"/>
<path d="M143.987 54.8139L143.632 53.9551H135.599H134.437L133.588 56.0053H136.051L136.397 55.1788H135.092H134.124V54.8139H135.238H136.552L136.846 54.1101H141.22L141.518 54.8139H142.677H143.987Z" fill="white" stroke="white" stroke-width="0.0613452"/>
<path d="M143.481 53.5903L143.129 52.7314H136.1H134.941L134.586 53.5903H135.745H143.481Z" fill="white"/>
<path d="M143.481 53.5903L143.129 52.7314H136.1H134.941L134.586 53.5903H135.745H143.481Z" fill="white" stroke="white" stroke-width="0.0613452"/>
<path d="M139.406 43.7231L139.035 42.8223L138.66 43.7231H139.406Z" fill="white"/>
<path d="M139.406 43.7231L139.035 42.8223L138.66 43.7231H139.406Z" fill="white" stroke="white" stroke-width="0.0613452"/>
<path d="M116.395 49.9323V49.0605H110.335H109.118V49.9323H110.335H116.395Z" fill="white"/>
<path d="M116.395 49.9323V49.0605H110.335H109.118V49.9323H110.335H116.395Z" fill="white" stroke="white" stroke-width="0.0613452"/>
<path d="M111.487 48.7116V47.8398H110.335H109.118V48.7116H110.335H111.487Z" fill="white"/>
<path d="M111.487 48.7116V47.8398H110.335H109.118V48.7116H110.335H111.487Z" fill="white" stroke="white" stroke-width="0.0613452"/>
<path d="M111.487 47.4721V46.6133H110.335H109.118V47.4721H110.335H111.487Z" fill="white"/>
<path d="M111.487 47.4721V46.6133H110.335H109.118V47.4721H110.335H111.487Z" fill="white" stroke="white" stroke-width="0.0613452"/>
<path d="M111.487 46.2475V46.2314H116.395V45.3887H110.335H109.118V46.2475H110.335H111.487Z" fill="white"/>
<path d="M111.487 46.2475V46.2314H116.395V45.3887H110.335H109.118V46.2475H110.335H111.487Z" fill="white" stroke="white" stroke-width="0.0613452"/>
<path d="M116.395 45.0249V44.0918H109.118V45.0249H110.335H116.395Z" fill="white"/>
<path d="M116.395 45.0249V44.0918H109.118V45.0249H110.335H116.395Z" fill="white" stroke="white" stroke-width="0.0613452"/>
<path d="M116.395 54.8301V53.9551H110.335H109.118V54.8301H110.335H116.395Z" fill="white"/>
<path d="M116.395 54.8301V53.9551H110.335H109.118V54.8301H110.335H116.395Z" fill="white" stroke="white" stroke-width="0.0613452"/>
<path d="M110.335 55.1787H109.118V56.0053H116.395V55.1787H110.335Z" fill="white"/>
<path d="M110.335 55.1787H109.118V56.0053H116.395V55.1787H110.335Z" fill="white" stroke="white" stroke-width="0.0613452"/>
<path d="M111.487 53.6064V52.7314H110.335H109.118V53.6064H110.335H111.487Z" fill="white"/>
<path d="M111.487 53.6064V52.7314H110.335H109.118V53.6064H110.335H111.487Z" fill="white" stroke="white" stroke-width="0.0613452"/>
<path d="M111.487 52.3663V51.5107H110.335H109.118V52.3663H110.335H111.487Z" fill="white"/>
<path d="M111.487 52.3663V51.5107H110.335H109.118V52.3663H110.335H111.487Z" fill="white" stroke="white" stroke-width="0.0613452"/>
<path d="M111.487 51.142V51.1259H116.395V50.2832H110.335H109.118V51.142H110.335H111.487Z" fill="white"/>
<path d="M111.487 51.142V51.1259H116.395V50.2832H110.335H109.118V51.142H110.335H111.487Z" fill="white" stroke="white" stroke-width="0.0613452"/>
<path d="M128.687 49.0608H127.334C127.324 49.0318 127.318 49.0027 127.305 48.9736C127.321 49.0253 127.331 49.0608 127.331 49.0608H126.133C126.133 49.0608 126.123 49.0285 126.11 48.9833C126.191 49.2707 126.243 49.5774 126.243 49.9035C126.243 49.91 126.243 49.9132 126.243 49.9196H128.735C128.735 49.868 128.735 49.8163 128.735 49.7679C128.735 49.529 128.716 49.2965 128.683 49.064L128.687 49.0608Z" fill="white"/>
<path d="M128.687 49.0608H127.334C127.324 49.0318 127.318 49.0027 127.305 48.9736C127.321 49.0253 127.331 49.0608 127.331 49.0608H126.133C126.133 49.0608 126.123 49.0285 126.11 48.9833C126.191 49.2707 126.243 49.5774 126.243 49.9035C126.243 49.91 126.243 49.9132 126.243 49.9196H128.735C128.735 49.868 128.735 49.8163 128.735 49.7679C128.735 49.529 128.716 49.2965 128.683 49.064L128.687 49.0608Z" fill="white" stroke="white" stroke-width="0.0613452"/>
<path d="M127.147 51.292C127.118 51.363 127.088 51.4179 127.072 51.4599C127.095 51.4179 127.121 51.3566 127.147 51.292Z" fill="white"/>
<path d="M127.147 51.292C127.118 51.363 127.088 51.4179 127.072 51.4599C127.095 51.4179 127.121 51.3566 127.147 51.292Z" fill="white" stroke="white" stroke-width="0.0613452"/>
<path d="M127.163 51.2529C127.163 51.2529 127.163 51.2631 127.16 51.2631C127.16 51.2597 127.16 51.2563 127.163 51.2529Z" fill="white"/>
<path d="M127.163 51.2529C127.163 51.2529 127.163 51.2631 127.16 51.2631C127.16 51.2597 127.16 51.2563 127.163 51.2529Z" fill="white" stroke="white" stroke-width="0.0613452"/>
<path d="M126.417 45.0249C125.716 44.4308 125 44.0918 124.502 44.0918H118.936V45.0249H126.417Z" fill="white"/>
<path d="M126.417 45.0249C125.716 44.4308 125 44.0918 124.502 44.0918H118.936V45.0249H126.417Z" fill="white" stroke="white" stroke-width="0.0613452"/>
<path d="M127.537 46.2482C127.311 45.9318 127.066 45.6444 126.814 45.3926H118.936V46.2482H127.537Z" fill="white"/>
<path d="M127.537 46.2482C127.311 45.9318 127.066 45.6444 126.814 45.3926H118.936V46.2482H127.537Z" fill="white" stroke="white" stroke-width="0.0613452"/>
<path d="M127.421 50.2832H126.223C126.188 50.5738 126.113 50.8611 126.01 51.1388H128.59C128.651 50.8547 128.696 50.5706 128.719 50.2832H127.421Z" fill="white"/>
<path d="M127.421 50.2832H126.223C126.188 50.5738 126.113 50.8611 126.01 51.1388H128.59C128.651 50.8547 128.696 50.5706 128.719 50.2832H127.421Z" fill="white" stroke="white" stroke-width="0.0613452"/>
<path d="M128.386 47.8398H125.532C125.729 48.0917 125.897 48.379 126.02 48.6954H128.629C128.57 48.3984 128.486 48.1143 128.386 47.8398Z" fill="white"/>
<path d="M128.386 47.8398H125.532C125.729 48.0917 125.897 48.379 126.02 48.6954H128.629C128.57 48.3984 128.486 48.1143 128.386 47.8398Z" fill="white" stroke="white" stroke-width="0.0613452"/>
<path d="M128.496 51.5107H125.852C125.703 51.8175 125.516 52.1048 125.309 52.3663H128.196C128.315 52.0854 128.419 51.8013 128.499 51.5107H128.496Z" fill="white"/>
<path d="M128.496 51.5107H125.852C125.703 51.8175 125.516 52.1048 125.309 52.3663H128.196C128.315 52.0854 128.419 51.8013 128.499 51.5107H128.496Z" fill="white" stroke="white" stroke-width="0.0613452"/>
<path d="M123.479 46.6133C124.063 46.6811 124.69 46.9846 125.2 47.4689H126.394C126.517 47.5883 126.614 47.7046 126.669 47.7724C126.614 47.7013 126.517 47.5787 126.401 47.4689H128.241C128.109 47.1686 127.954 46.8813 127.786 46.6133H123.479Z" fill="white"/>
<path d="M123.479 46.6133C124.063 46.6811 124.69 46.9846 125.2 47.4689H126.394C126.517 47.5883 126.614 47.7046 126.669 47.7724C126.614 47.7013 126.517 47.5787 126.401 47.4689H128.241C128.109 47.1686 127.954 46.8813 127.786 46.6133H123.479Z" fill="white" stroke="white" stroke-width="0.0613452"/>
<path d="M126.44 52.4443C126.346 52.5477 126.265 52.6348 126.22 52.6833C126.307 52.5993 126.368 52.5283 126.44 52.4443Z" fill="white"/>
<path d="M126.44 52.4443C126.346 52.5477 126.265 52.6348 126.22 52.6833C126.307 52.5993 126.368 52.5283 126.44 52.4443Z" fill="white" stroke="white" stroke-width="0.0613452"/>
<path d="M126.362 54.8298C126.682 54.5715 126.972 54.2776 127.231 53.958H118.936V54.8298H126.362Z" fill="white"/>
<path d="M126.362 54.8298C126.682 54.5715 126.972 54.2776 127.231 53.958H118.936V54.8298H126.362Z" fill="white" stroke="white" stroke-width="0.0613452"/>
<path d="M127.499 53.6061C127.695 53.3285 127.87 53.0379 128.022 52.7344H124.974C124.441 53.2607 123.808 53.5964 123.217 53.59H121.351V52.7344H118.936V53.6061H127.499Z" fill="white"/>
<path d="M127.499 53.6061C127.695 53.3285 127.87 53.0379 128.022 52.7344H124.974C124.441 53.2607 123.808 53.5964 123.217 53.59H121.351V52.7344H118.936V53.6061H127.499Z" fill="white" stroke="white" stroke-width="0.0613452"/>
<path d="M120.124 55.1787H118.936V56.0214L123.111 56.0053C124.144 56.0053 125.08 55.6953 125.878 55.1787H120.124Z" fill="white"/>
<path d="M120.124 55.1787H118.936V56.0214L123.111 56.0053C124.144 56.0053 125.08 55.6953 125.878 55.1787H120.124Z" fill="white" stroke="white" stroke-width="0.0613452"/>
<path d="M121.345 49.9194L121.341 49.0605H120.124H118.936V49.9194H120.124H121.345Z" fill="white"/>
<path d="M121.345 49.9194L121.341 49.0605H120.124H118.936V49.9194H120.124H121.345Z" fill="white" stroke="white" stroke-width="0.0613452"/>
<path d="M121.341 48.6954L121.338 47.8398H120.124H118.936V48.6954H120.124H121.341Z" fill="white"/>
<path d="M121.341 48.6954L121.338 47.8398H120.124H118.936V48.6954H120.124H121.341Z" fill="white" stroke="white" stroke-width="0.0613452"/>
<path d="M121.338 47.4721V46.6133H120.124H118.936V47.4721H120.124H121.338Z" fill="white"/>
<path d="M121.338 47.4721V46.6133H120.124H118.936V47.4721H120.124H121.338Z" fill="white" stroke="white" stroke-width="0.0613452"/>
<path d="M121.348 52.3663V51.5107H120.124H118.936V52.3663H120.124H121.348Z" fill="white"/>
<path d="M121.348 52.3663V51.5107H120.124H118.936V52.3663H120.124H121.348Z" fill="white" stroke="white" stroke-width="0.0613452"/>
<path d="M121.348 51.142L121.345 50.2832H120.124H118.936V51.142H120.124H121.348Z" fill="white"/>
<path d="M121.348 51.142L121.345 50.2832H120.124H118.936V51.142H120.124H121.348Z" fill="white" stroke="white" stroke-width="0.0613452"/>
<path d="M106.606 43.8007V43.2324L106.096 43.8007H106.606Z" fill="white"/>
<path d="M106.606 43.8007V43.2324L106.096 43.8007H106.606Z" fill="white" stroke="white" stroke-width="0.0613452"/>
<path d="M94.4787 43.3711V43.8005H94.879L94.4787 43.3711Z" fill="white"/>
<path d="M94.4787 43.3711V43.8005H94.879L94.4787 43.3711Z" fill="white" stroke="white" stroke-width="0.0613452"/>
<path d="M98.3079 47.4717L97.5007 46.6064H95.6701H94.4787V47.4717H95.6701H98.3079Z" fill="white"/>
<path d="M98.3079 47.4717L97.5007 46.6064H95.6701H94.4787V47.4717H95.6701H98.3079Z" fill="white" stroke="white" stroke-width="0.0613452"/>
<path d="M99.4509 48.6954L98.6437 47.8301H95.6701H94.4787V48.6954H95.6701H99.4509Z" fill="white"/>
<path d="M99.4509 48.6954L98.6437 47.8301H95.6701H94.4787V48.6954H95.6701H99.4509Z" fill="white" stroke="white" stroke-width="0.0613452"/>
<path d="M96.8808 51.1426V50.2773H95.6701H94.4787V51.1426H95.6701H96.8808Z" fill="white"/>
<path d="M96.8808 51.1426V50.2773H95.6701H94.4787V51.1426H95.6701H96.8808Z" fill="white" stroke="white" stroke-width="0.0613452"/>
<path d="M96.8808 52.3663V51.501H95.6701H94.4787V52.3663H95.6701H96.8808Z" fill="white"/>
<path d="M96.8808 52.3663V51.501H95.6701H94.4787V52.3663H95.6701H96.8808Z" fill="white" stroke="white" stroke-width="0.0613452"/>
<path d="M97.1649 46.2481L96.3578 45.3828H95.6701H94.4787V46.2481H95.6701H97.1649Z" fill="white"/>
<path d="M97.1649 46.2481L96.3578 45.3828H95.6701H94.4787V46.2481H95.6701H97.1649Z" fill="white" stroke="white" stroke-width="0.0613452"/>
<path d="M96.022 45.0249L95.1502 44.0918H94.4787V45.0249H95.6701H96.022Z" fill="white"/>
<path d="M96.022 45.0249L95.1502 44.0918H94.4787V45.0249H95.6701H96.022Z" fill="white" stroke="white" stroke-width="0.0613452"/>
<path d="M106.121 45.0249H106.606V44.0918H105.831L104.982 45.0249H106.118H106.121Z" fill="white"/>
<path d="M106.121 45.0249H106.606V44.0918H105.831L104.982 45.0249H106.118H106.121Z" fill="white" stroke="white" stroke-width="0.0613452"/>
<path d="M96.8808 53.5899V52.7246H95.6701H94.4787V53.5899H95.6701H96.8808Z" fill="white"/>
<path d="M96.8808 53.5899V52.7246H95.6701H94.4787V53.5899H95.6701H96.8808Z" fill="white" stroke="white" stroke-width="0.0613452"/>
<path d="M106.606 46.6064H104.688H104.685H103.545L102.76 47.4717H103.897H106.606V46.6064Z" fill="white"/>
<path d="M106.606 46.6064H104.688H104.685H103.545L102.76 47.4717H103.897H106.606V46.6064Z" fill="white" stroke="white" stroke-width="0.0613452"/>
<path d="M102.796 48.6954H106.606V47.8301H103.577L103.897 47.4717L103.571 47.8301H102.434L101.65 48.6954H102.793H102.796Z" fill="white"/>
<path d="M102.796 48.6954H106.606V47.8301H103.577L103.897 47.4717L103.571 47.8301H102.434L101.65 48.6954H102.793H102.796Z" fill="white" stroke="white" stroke-width="0.0613452"/>
<path d="M106.606 46.2481V45.3828H105.798H105.792H104.656L103.871 46.2481H105.014H106.606Z" fill="white"/>
<path d="M106.606 46.2481V45.3828H105.798H105.792H104.656L103.871 46.2481H105.014H106.606Z" fill="white" stroke="white" stroke-width="0.0613452"/>
<path d="M96.8808 54.8145V53.9492H95.6701H94.4787V54.8145H95.6701H96.8808Z" fill="white"/>
<path d="M96.8808 54.8145V53.9492H95.6701H94.4787V54.8145H95.6701H96.8808Z" fill="white" stroke="white" stroke-width="0.0613452"/>
<path d="M106.606 54.8145V53.9492H105.398H104.207V54.8145H105.398H106.606Z" fill="white"/>
<path d="M106.606 54.8145V53.9492H105.398H104.207V54.8145H105.398H106.606Z" fill="white" stroke="white" stroke-width="0.0613452"/>
<path d="M105.398 52.7246H104.207V53.5899H105.398H106.606V52.7246H105.398Z" fill="white"/>
<path d="M105.398 52.7246H104.207V53.5899H105.398H106.606V52.7246H105.398Z" fill="white" stroke="white" stroke-width="0.0613452"/>
<path d="M105.398 55.1719H104.207V56.0049H106.606V55.1719H105.398Z" fill="white"/>
<path d="M105.398 55.1719H104.207V56.0049H106.606V55.1719H105.398Z" fill="white" stroke="white" stroke-width="0.0613452"/>
<path d="M105.398 50.2773H104.559H104.555H104.207V51.1426H105.398H106.606V50.2773H105.398Z" fill="white"/>
<path d="M105.398 50.2773H104.559H104.555H104.207V51.1426H105.398H106.606V50.2773H105.398Z" fill="white" stroke="white" stroke-width="0.0613452"/>
<path d="M105.398 51.501H104.207V52.3663H105.398H106.606V51.501H105.398Z" fill="white"/>
<path d="M105.398 51.501H104.207V52.3663H105.398H106.606V51.501H105.398Z" fill="white" stroke="white" stroke-width="0.0613452"/>
<path d="M100.955 52.7246H99.7221L100.568 53.6964L101.375 52.7246H100.955Z" fill="white"/>
<path d="M100.955 52.7246H99.7221L100.568 53.6964L101.375 52.7246H100.955Z" fill="white" stroke="white" stroke-width="0.0613452"/>
<path d="M102.692 51.1427L103.409 50.2774H98.8471L98.5404 49.919H103.709L104.207 49.3217V49.919H104.849L104.704 50.0966L104.852 49.919H105.398H106.606V49.0537H102.47H102.463H101.323L100.568 49.8867L99.7866 49.0537H95.6701H94.4787V49.919H95.6701H96.8808V49.4605L97.2779 49.919H98.0722H98.5307L98.8406 50.2774H98.0722H97.5911L98.3434 51.1427H99.5897L99.8996 51.5011L99.5961 51.1427H102.692Z" fill="white"/>
<path d="M102.692 51.1427L103.409 50.2774H98.8471L98.5404 49.919H103.709L104.207 49.3217V49.919H104.849L104.704 50.0966L104.852 49.919H105.398H106.606V49.0537H102.47H102.463H101.323L100.568 49.8867L99.7866 49.0537H95.6701H94.4787V49.919H95.6701H96.8808V49.4605L97.2779 49.919H98.0722H98.5307L98.8406 50.2774H98.0722H97.5911L98.3434 51.1427H99.5897L99.8996 51.5011L99.5961 51.1427H102.692Z" fill="white" stroke="white" stroke-width="0.0613452"/>
<path d="M95.6701 55.1719H94.4787V56.0049H96.8808V55.1719H95.6701Z" fill="white"/>
<path d="M95.6701 55.1719H94.4787V56.0049H96.8808V55.1719H95.6701Z" fill="white" stroke="white" stroke-width="0.0613452"/>
<path d="M101.672 52.3663L102.392 51.501H99.8997H98.6566L99.4089 52.3663H100.645L100.955 52.7246L100.649 52.3663H101.672Z" fill="white"/>
<path d="M101.672 52.3663L102.392 51.501H99.8997H98.6566L99.4089 52.3663H100.645L100.955 52.7246L100.649 52.3663H101.672Z" fill="white" stroke="white" stroke-width="0.0613452"/>
<path d="M132.961 49.9194V49.0605H131.657H130.498V49.9194H131.657H132.961Z" fill="white"/>
<path d="M132.961 49.9194V49.0605H131.657H130.498V49.9194H131.657H132.961Z" fill="white" stroke="white" stroke-width="0.0613452"/>
<path d="M132.961 47.4721V46.6133H131.657H130.498V47.4721H131.657H132.961Z" fill="white"/>
<path d="M132.961 47.4721V46.6133H131.657H130.498V47.4721H131.657H132.961Z" fill="white" stroke="white" stroke-width="0.0613452"/>
<path d="M132.961 45.0249V44.0918H131.657H130.498V45.0249H131.657H132.961Z" fill="white"/>
<path d="M132.961 45.0249V44.0918H131.657H130.498V45.0249H131.657H132.961Z" fill="white" stroke="white" stroke-width="0.0613452"/>
<path d="M132.961 46.2475V45.3887H131.657H130.498V46.2475H131.657H132.961Z" fill="white"/>
<path d="M132.961 46.2475V45.3887H131.657H130.498V46.2475H131.657H132.961Z" fill="white" stroke="white" stroke-width="0.0613452"/>
<path d="M132.961 48.6954V47.8398H131.657H130.498V48.6954H131.657H132.961Z" fill="white"/>
<path d="M132.961 48.6954V47.8398H131.657H130.498V48.6954H131.657H132.961Z" fill="white" stroke="white" stroke-width="0.0613452"/>
<path d="M132.961 54.8139V53.9551H131.657H130.498V54.8139H131.657H132.961Z" fill="white"/>
<path d="M132.961 54.8139V53.9551H131.657H130.498V54.8139H131.657H132.961Z" fill="white" stroke="white" stroke-width="0.0613452"/>
<path d="M131.657 55.1787H130.498V56.0053H132.961V55.1787H131.657Z" fill="white"/>
<path d="M131.657 55.1787H130.498V56.0053H132.961V55.1787H131.657Z" fill="white" stroke="white" stroke-width="0.0613452"/>
<path d="M132.961 52.3663V51.5107H131.657H130.498V52.3663H131.657H132.961Z" fill="white"/>
<path d="M132.961 52.3663V51.5107H131.657H130.498V52.3663H131.657H132.961Z" fill="white" stroke="white" stroke-width="0.0613452"/>
<path d="M132.961 51.142V50.2832H131.657H130.498V51.142H131.657H132.961Z" fill="white"/>
<path d="M132.961 51.142V50.2832H131.657H130.498V51.142H131.657H132.961Z" fill="white" stroke="white" stroke-width="0.0613452"/>
<path d="M132.961 53.5903V52.7314H131.657H130.498V53.5903H131.657H132.961Z" fill="white"/>
<path d="M132.961 53.5903V52.7314H131.657H130.498V53.5903H131.657H132.961Z" fill="white" stroke="white" stroke-width="0.0613452"/>
<path d="M105.398 55.1719V54.8135H107.8V55.1719H105.398Z" fill="white"/>
<path d="M105.398 53.9492V53.5908H107.8V53.9492H105.398Z" fill="white"/>
<path d="M105.398 52.7246V52.3662H107.8V52.7246H105.398Z" fill="white"/>
<path d="M105.398 51.5019V51.1436H107.8V51.5019H105.398Z" fill="white"/>
<path d="M105.398 50.2773V49.9189H107.8V50.2773H105.398Z" fill="white"/>
<path d="M102.463 49.0527L102.793 48.6943H107.8V49.0527H102.463Z" fill="white"/>
<path d="M103.577 47.8301L103.897 47.4717H107.8V47.8301H103.577Z" fill="white"/>
<path d="M104.685 46.6055L105.014 46.2471H107.8V46.6055H104.685Z" fill="white"/>
<path d="M105.792 45.3828L106.118 45.0244H107.8V45.3828H105.792Z" fill="white"/>
<path d="M106.97 44.0904L107.232 43.7998H107.8V44.0904H106.97Z" fill="white"/>
<path d="M98.8471 50.2773L98.5403 49.9189H104.849L104.559 50.2773H98.8471Z" fill="white"/>
<path d="M99.8996 51.5019L99.5962 51.1436H103.823L103.532 51.5019H99.8996Z" fill="white"/>
<path d="M100.955 52.7246L100.649 52.3662H102.799L102.508 52.7246H100.955Z" fill="white"/>
<path d="M98.0723 55.1719V54.8135H95.6701V55.1719H98.0723Z" fill="white"/>
<path d="M98.0723 53.9492V53.5908H95.6701V53.9492H98.0723Z" fill="white"/>
<path d="M98.0723 52.7246V52.3662H95.6701V52.7246H98.0723Z" fill="white"/>
<path d="M98.0723 51.5019V51.1436H95.6701V51.5019H98.0723Z" fill="white"/>
<path d="M98.0723 50.2773V49.9189H95.6701V50.2773H98.0723Z" fill="white"/>
<path d="M101.01 49.0527L100.681 48.6943H95.6701V49.0527H101.01Z" fill="white"/>
<path d="M99.8965 47.8301L99.5768 47.4717H95.6701V47.8301H99.8965Z" fill="white"/>
<path d="M98.789 46.6055L98.4597 46.2471H95.6701V46.6055H98.789Z" fill="white"/>
<path d="M97.6784 45.3828L97.3555 45.0244H95.6701V45.3828H97.6784Z" fill="white"/>
<path d="M96.4999 44.0904L96.2416 43.7998H95.6701V44.0904H96.4999Z" fill="white"/>
<path d="M110.335 44.0904V43.7998H117.619V44.0904H110.335Z" fill="white"/>
<path d="M110.335 45.3893V45.0244H117.619V45.3893H110.335Z" fill="white"/>
<path d="M110.335 46.6119V46.2471H112.711V46.6119H110.335Z" fill="white"/>
<path d="M110.335 47.8398V47.4717H112.711V47.8398H110.335Z" fill="white"/>
<path d="M110.335 49.0606V48.7119H117.619V49.0606H110.335Z" fill="white"/>
<path d="M110.335 50.2836V49.9316H117.619V50.2836H110.335Z" fill="white"/>
<path d="M110.335 51.5116V51.1436H112.711V51.5116H110.335Z" fill="white"/>
<path d="M110.335 52.7311V52.3662H112.711V52.7311H110.335Z" fill="white"/>
<path d="M110.335 53.9551V53.6064H117.619V53.9551H110.335Z" fill="white"/>
<path d="M110.335 55.1778V54.8291H117.619V55.1778H110.335Z" fill="white"/>
<path d="M127.608 45.0244H120.124V45.3925H127.999C127.87 45.2472 127.731 45.1342 127.608 45.0244Z" fill="white"/>
<path d="M128.738 46.2471H120.124V46.6151H128.993C128.893 46.4537 128.742 46.2471 128.742 46.2471H128.738Z" fill="white"/>
<path d="M120.124 47.8398V47.4717H122.53V47.8398H120.124Z" fill="white"/>
<path d="M120.124 49.0592V48.6943H122.53V49.0592H120.124Z" fill="white"/>
<path d="M120.124 50.2838V49.9189H122.53V50.2838H120.124Z" fill="white"/>
<path d="M120.124 51.5116V51.1436H122.53V51.5116H120.124Z" fill="white"/>
<path d="M120.124 52.7311V52.3662H122.53V52.7311H120.124Z" fill="white"/>
<path d="M128.435 53.9554H120.124V53.6035H128.693C128.57 53.794 128.435 53.9554 128.435 53.9554Z" fill="white"/>
<path d="M127.547 54.8291H120.124V55.181H127.072C127.308 55.0454 127.547 54.8291 127.547 54.8291Z" fill="white"/>
<path d="M129.581 47.8398H126.717C126.717 47.8398 126.578 47.6396 126.404 47.4717H129.436C129.513 47.6105 129.581 47.8398 129.581 47.8398Z" fill="white"/>
<path d="M129.888 49.0605H127.337C127.308 48.9604 127.273 48.8538 127.208 48.6924H129.826C129.859 48.8377 129.888 49.0605 129.888 49.0605Z" fill="white"/>
<path d="M127.421 50.2838L127.44 49.9189H129.933L129.914 50.2838H127.421Z" fill="white"/>
<path d="M129.697 51.5116H127.043C127.072 51.4664 127.153 51.2953 127.201 51.1436H129.781C129.755 51.2759 129.694 51.5116 129.694 51.5116H129.697Z" fill="white"/>
<path d="M126.168 52.7314H129.219C129.252 52.6765 129.326 52.515 129.384 52.3633H126.504C126.381 52.5086 126.314 52.5957 126.168 52.7314Z" fill="white"/>
<path d="M125.803 44.0904H120.124V43.7998H124.373C125.077 43.8063 125.797 44.0904 125.803 44.0904Z" fill="white"/>
<path d="M131.657 47.8398V47.4717H134.124V47.8398H131.657Z" fill="white"/>
<path d="M131.657 49.0592V48.6943H134.124V49.0592H131.657Z" fill="white"/>
<path d="M131.657 50.2838V49.9189H134.124V50.2838H131.657Z" fill="white"/>
<path d="M131.657 51.5116V51.1436H134.124V51.5116H131.657Z" fill="white"/>
<path d="M131.657 52.7311V52.3662H134.124V52.7311H131.657Z" fill="white"/>
<path d="M131.657 53.9557V53.5908H134.124V53.9557H131.657Z" fill="white"/>
<path d="M131.657 55.1783V54.8135H134.124V55.1783H131.657Z" fill="white"/>
<path d="M131.657 46.6119V46.2471H134.124V46.6119H131.657Z" fill="white"/>
<path d="M131.657 45.3893V45.0244H134.124V45.3893H131.657Z" fill="white"/>
<path d="M131.657 44.0907V43.7227H134.124V44.0907H131.657Z" fill="white"/>
<path d="M142.832 55.1783L142.677 54.8135H145.143L145.298 55.1783H142.832Z" fill="white"/>
<path d="M135.599 53.9557L135.745 53.5908H144.64L144.791 53.9557H135.599Z" fill="white"/>
<path d="M136.1 52.7311L136.245 52.3662H144.133L144.288 52.7311H136.1Z" fill="white"/>
<path d="M141.301 51.5116L141.149 51.1436H143.616L143.768 51.5116H141.301Z" fill="white"/>
<path d="M140.797 50.2838L140.643 49.9189H143.109L143.264 50.2838H140.797Z" fill="white"/>
<path d="M140.291 49.0592L140.139 48.6943H142.606L142.757 49.0592H140.291Z" fill="white"/>
<path d="M138.121 47.8398L138.273 47.4717H142.115L142.27 47.8398H138.121Z" fill="white"/>
<path d="M139.083 51.5116L139.235 51.1436H136.771L136.616 51.5116H139.083Z" fill="white"/>
<path d="M139.587 50.2838L139.742 49.9189H137.275L137.123 50.2838H139.587Z" fill="white"/>
<path d="M140.094 49.0592L140.245 48.6943H137.779L137.627 49.0592H140.094Z" fill="white"/>
<path d="M135.089 55.1783L135.238 54.8135H137.701L137.559 55.1783H135.089Z" fill="white"/>
<path d="M138.641 46.6119L138.792 46.2471H141.611L141.763 46.6119H138.641Z" fill="white"/>
<path d="M139.128 45.3893L139.283 45.0244H141.107L141.259 45.3893H139.128Z" fill="white"/>
<path d="M139.664 44.0907L139.819 43.7227H140.572L140.723 44.0907H139.664Z" fill="white"/>
</g>
<defs>
<clipPath id="clip0_470_553">
<rect width="165.471" height="55.1977" fill="white" transform="translate(0.672241 0.855469)"/>
</clipPath>
</defs>
</svg>
